<?xml version="1.0" standalone="no"?>
 <!DOCTYPE svg PUBLIC "-//W3C//DTD SVG 1.1//EN" 
 "http://www.w3.org/Graphics/SVG/1.1/DTD/svg11.dtd"> 
<svg xmlns="http://www.w3.org/2000/svg" version="1.1" 
    width="29.7002cm" height="21.0007cm" viewBox="0 0 116930 82680 ">
<title>SVG Picture created as avrisp2_mod.svg date 2020/02/26 23:18:37 </title>
  <desc>Picture generated by Eeschema-SVG </desc>
<g style="fill:#000000; fill-opacity:1;stroke:#000000; stroke-opacity:1;
stroke-linecap:round; stroke-linejoin:round; "
 transform="translate(0 0) scale(1 1)">
</g>
<g style="fill:#000000; fill-opacity:0.0; 
stroke:#000000; stroke-width:0; stroke-opacity:1; 
stroke-linecap:round; stroke-linejoin:round;">
<g >
</g>
<g style="fill:#840000; fill-opacity:0.0; 
stroke:#840000; stroke-width:0; stroke-opacity:1; 
stroke-linecap:round; stroke-linejoin:round;">
</g>
<g style="fill:#840000; fill-opacity:0.0; 
stroke:#840000; stroke-width:100; stroke-opacity:1; 
stroke-linecap:round; stroke-linejoin:round;">
<rect x="53000" y="18700" width="2000" height="600" rx="0" />
</g>
<g style="fill:#840000; fill-opacity:0.0; 
stroke:#840000; stroke-width:60; stroke-opacity:1; 
stroke-linecap:round; stroke-linejoin:round;">
<path style="fill:#840000; fill-opacity:0.0; 
stroke:#840000; stroke-width:60; stroke-opacity:1; 
stroke-linecap:round; stroke-linejoin:round;fill:none"
d="M 55000,19000
53000,19000
" /> 
<path style="fill:#840000; fill-opacity:0.0; 
stroke:#840000; stroke-width:60; stroke-opacity:1; 
stroke-linecap:round; stroke-linejoin:round;fill:none"
d="M 55000,18400
54600,18400
53400,19600
53000,19600
" /> 
<path d="M55000 19000
L55500 19000
" />
<path d="M53000 19000
L52500 19000
" />
</g>
<g style="fill:#008484; fill-opacity:0.0; 
stroke:#008484; stroke-width:60; stroke-opacity:1; 
stroke-linecap:round; stroke-linejoin:round;">
<text x="54000" y="17020"
textLength="1060" font-size="660" lengthAdjust="spacingAndGlyphs"
text-anchor="middle" opacity="0">F1</text>
<path d="M53830 16730
L53660 16730
" />
<path d="M53660 16990
L53660 16490
L53900 16490
" />
<path d="M54350 16990
L54070 16990
" />
<path d="M54210 16990
L54210 16490
L54160 16560
L54110 16610
L54070 16630
" />
<text x="54000" y="17930"
textLength="3230" font-size="660" lengthAdjust="spacingAndGlyphs"
text-anchor="middle" opacity="0">Polyfuse</text>
<path d="M52530 17900
L52530 17400
L52720 17400
L52770 17430
L52790 17450
L52820 17500
L52820 17570
L52790 17620
L52770 17640
L52720 17660
L52530 17660
" />
<path d="M53100 17900
L53050 17880
L53030 17850
L53010 17810
L53010 17660
L53030 17620
L53050 17590
L53100 17570
L53170 17570
L53220 17590
L53250 17620
L53270 17660
L53270 17810
L53250 17850
L53220 17880
L53170 17900
L53100 17900
" />
<path d="M53550 17900
L53510 17880
L53480 17830
L53480 17400
" />
<path d="M53700 17570
L53820 17900
" />
<path d="M53940 17570
L53820 17900
L53770 18020
L53750 18040
L53700 18070
" />
<path d="M54050 17570
L54250 17570
" />
<path d="M54130 17900
L54130 17470
L54150 17430
L54200 17400
L54250 17400
" />
<path d="M54630 17570
L54630 17900
" />
<path d="M54410 17570
L54410 17830
L54440 17880
L54480 17900
L54550 17900
L54600 17880
L54630 17850
" />
<path d="M54840 17880
L54890 17900
L54980 17900
L55030 17880
L55050 17830
L55050 17810
L55030 17760
L54980 17730
L54910 17730
L54860 17710
L54840 17660
L54840 17640
L54860 17590
L54910 17570
L54980 17570
L55030 17590
" />
<path d="M55460 17880
L55410 17900
L55320 17900
L55270 17880
L55250 17830
L55250 17640
L55270 17590
L55320 17570
L55410 17570
L55460 17590
L55480 17640
L55480 17690
L55250 17730
" />
</g>
</g>
<g style="fill:#008484; fill-opacity:0.0; 
stroke:#008484; stroke-width:0; stroke-opacity:1; 
stroke-linecap:round; stroke-linejoin:round;">
<g >
</g>
<g style="fill:#840000; fill-opacity:0.0; 
stroke:#840000; stroke-width:0; stroke-opacity:1; 
stroke-linecap:round; stroke-linejoin:round;">
</g>
<g style="fill:#840000; fill-opacity:1.0; 
stroke:#840000; stroke-width:60; stroke-opacity:1; 
stroke-linecap:round; stroke-linejoin:round;">
<rect x="96500" y="20450" width="340" height="100" rx="0" />
<rect x="96500" y="19450" width="340" height="100" rx="0" />
</g>
<g style="fill:#840000; fill-opacity:0.0; 
stroke:#840000; stroke-width:60; stroke-opacity:1; 
stroke-linecap:round; stroke-linejoin:round;">
<path style="fill:#840000; fill-opacity:0.0; 
stroke:#840000; stroke-width:60; stroke-opacity:1; 
stroke-linecap:round; stroke-linejoin:round;fill:none"
d="M 97000,20500
96840,20500
" /> 
<path style="fill:#840000; fill-opacity:0.0; 
stroke:#840000; stroke-width:60; stroke-opacity:1; 
stroke-linecap:round; stroke-linejoin:round;fill:none"
d="M 97000,19500
96840,19500
" /> 
<path d="M97000 19500
L98500 19500
" />
<text x="97750" y="19400"
textLength="540" font-size="660" lengthAdjust="spacingAndGlyphs"
text-anchor="middle" opacity="0">1</text>
<path d="M97890 19370
L97600 19370
" />
<path d="M97750 19370
L97750 18870
L97700 18940
L97650 18990
L97600 19010
" />
<path d="M97000 20500
L98500 20500
" />
<text x="97750" y="20400"
textLength="540" font-size="660" lengthAdjust="spacingAndGlyphs"
text-anchor="middle" opacity="0">2</text>
<path d="M97600 19920
L97630 19900
L97670 19870
L97790 19870
L97840 19900
L97860 19920
L97890 19970
L97890 20010
L97860 20090
L97580 20370
L97890 20370
" />
</g>
<g style="fill:#008484; fill-opacity:0.0; 
stroke:#008484; stroke-width:60; stroke-opacity:1; 
stroke-linecap:round; stroke-linejoin:round;">
<text x="97580" y="17960"
textLength="920" font-size="660" lengthAdjust="spacingAndGlyphs"
text-anchor="middle" opacity="0">J4</text>
<path d="M97410 17430
L97410 17790
L97380 17860
L97340 17910
L97270 17930
L97220 17930
" />
<path d="M97860 17600
L97860 17930
" />
<path d="M97740 17410
L97620 17760
L97930 17760
" />
<text x="96500" y="25270"
textLength="6700" font-size="660" lengthAdjust="spacingAndGlyphs"
text-anchor="middle" opacity="0">Conn_01x02_Male</text>
<path d="M93580 25190
L93550 25220
L93480 25240
L93440 25240
L93360 25220
L93320 25170
L93290 25120
L93270 25030
L93270 24960
L93290 24860
L93320 24810
L93360 24770
L93440 24740
L93480 24740
L93550 24770
L93580 24790
" />
<path d="M93860 25240
L93820 25220
L93790 25190
L93770 25150
L93770 25000
L93790 24960
L93820 24930
L93860 24910
L93940 24910
L93980 24930
L94010 24960
L94030 25000
L94030 25150
L94010 25190
L93980 25220
L93940 25240
L93860 25240
" />
<path d="M94250 24910
L94250 25240
" />
<path d="M94250 24960
L94270 24930
L94320 24910
L94390 24910
L94440 24930
L94460 24980
L94460 25240
" />
<path d="M94700 24910
L94700 25240
" />
<path d="M94700 24960
L94720 24930
L94770 24910
L94840 24910
L94890 24930
L94910 24980
L94910 25240
" />
<path d="M95030 25290
L95410 25290
" />
<path d="M95630 24740
L95670 24740
L95720 24770
L95750 24790
L95770 24840
L95790 24930
L95790 25050
L95770 25150
L95750 25190
L95720 25220
L95670 25240
L95630 25240
L95580 25220
L95550 25190
L95530 25150
L95510 25050
L95510 24930
L95530 24840
L95550 24790
L95580 24770
L95630 24740
" />
<path d="M96270 25240
L95980 25240
" />
<path d="M96130 25240
L96130 24740
L96080 24810
L96030 24860
L95980 24880
" />
<path d="M96440 25240
L96700 24910
" />
<path d="M96440 24910
L96700 25240
" />
<path d="M96980 24740
L97030 24740
L97080 24770
L97100 24790
L97130 24840
L97150 24930
L97150 25050
L97130 25150
L97100 25190
L97080 25220
L97030 25240
L96980 25240
L96940 25220
L96910 25190
L96890 25150
L96860 25050
L96860 24930
L96890 24840
L96910 24790
L96940 24770
L96980 24740
" />
<path d="M97340 24790
L97360 24770
L97410 24740
L97530 24740
L97580 24770
L97600 24790
L97630 24840
L97630 24880
L97600 24960
L97320 25240
L97630 25240
" />
<path d="M97720 25290
L98100 25290
" />
<path d="M98220 25240
L98220 24740
L98390 25100
L98550 24740
L98550 25240
" />
<path d="M99010 25240
L99010 24980
L98980 24930
L98940 24910
L98840 24910
L98790 24930
" />
<path d="M99010 25220
L98960 25240
L98840 25240
L98790 25220
L98770 25170
L98770 25120
L98790 25070
L98840 25050
L98960 25050
L99010 25030
" />
<path d="M99320 25240
L99270 25220
L99250 25170
L99250 24740
" />
<path d="M99700 25220
L99650 25240
L99550 25240
L99510 25220
L99480 25170
L99480 24980
L99510 24930
L99550 24910
L99650 24910
L99700 24930
L99720 24980
L99720 25030
L99480 25070
" />
</g>
</g>
<g style="fill:#008484; fill-opacity:0.0; 
stroke:#008484; stroke-width:0; stroke-opacity:1; 
stroke-linecap:round; stroke-linejoin:round;">
<g >
</g>
<g style="fill:#840000; fill-opacity:0.0; 
stroke:#840000; stroke-width:0; stroke-opacity:1; 
stroke-linecap:round; stroke-linejoin:round;">
</g>
<g style="fill:#840000; fill-opacity:0.0; 
stroke:#840000; stroke-width:60; stroke-opacity:1; 
stroke-linecap:round; stroke-linejoin:round;">
<path d="M83499.7 21800 A200 200 0.0 0 0 83499.7 22200 " />
<path d="M83499.7 20800 A200 200 0.0 0 0 83499.7 21200 " />
<path d="M83499.7 19800 A200 200 0.0 0 0 83499.7 20200 " />
<path d="M83499.7 18800 A200 200 0.0 0 0 83499.7 19200 " />
<path d="M83499.7 17800 A200 200 0.0 0 0 83499.7 18200 " />
<path style="fill:#840000; fill-opacity:0.0; 
stroke:#840000; stroke-width:60; stroke-opacity:1; 
stroke-linecap:round; stroke-linejoin:round;fill:none"
d="M 83000,22000
83300,22000
" /> 
<path style="fill:#840000; fill-opacity:0.0; 
stroke:#840000; stroke-width:60; stroke-opacity:1; 
stroke-linecap:round; stroke-linejoin:round;fill:none"
d="M 83000,21000
83300,21000
" /> 
<path style="fill:#840000; fill-opacity:0.0; 
stroke:#840000; stroke-width:60; stroke-opacity:1; 
stroke-linecap:round; stroke-linejoin:round;fill:none"
d="M 83000,20000
83300,20000
" /> 
<path style="fill:#840000; fill-opacity:0.0; 
stroke:#840000; stroke-width:60; stroke-opacity:1; 
stroke-linecap:round; stroke-linejoin:round;fill:none"
d="M 83000,19000
83300,19000
" /> 
<path style="fill:#840000; fill-opacity:0.0; 
stroke:#840000; stroke-width:60; stroke-opacity:1; 
stroke-linecap:round; stroke-linejoin:round;fill:none"
d="M 83000,18000
83300,18000
" /> 
<path d="M83000 18000
L81500 18000
" />
<text x="82250" y="17900"
textLength="540" font-size="660" lengthAdjust="spacingAndGlyphs"
text-anchor="middle" opacity="0">1</text>
<path d="M82390 17870
L82100 17870
" />
<path d="M82250 17870
L82250 17370
L82200 17440
L82150 17490
L82100 17510
" />
<path d="M83000 19000
L81500 19000
" />
<text x="82250" y="18900"
textLength="540" font-size="660" lengthAdjust="spacingAndGlyphs"
text-anchor="middle" opacity="0">2</text>
<path d="M82100 18420
L82130 18400
L82170 18370
L82290 18370
L82340 18400
L82360 18420
L82390 18470
L82390 18510
L82360 18590
L82080 18870
L82390 18870
" />
<path d="M83000 20000
L81500 20000
" />
<text x="82250" y="19900"
textLength="540" font-size="660" lengthAdjust="spacingAndGlyphs"
text-anchor="middle" opacity="0">3</text>
<path d="M82080 19370
L82390 19370
L82220 19560
L82290 19560
L82340 19590
L82360 19610
L82390 19660
L82390 19780
L82360 19820
L82340 19850
L82290 19870
L82150 19870
L82100 19850
L82080 19820
" />
<path d="M83000 21000
L81500 21000
" />
<text x="82250" y="20900"
textLength="540" font-size="660" lengthAdjust="spacingAndGlyphs"
text-anchor="middle" opacity="0">4</text>
<path d="M82340 20540
L82340 20870
" />
<path d="M82220 20350
L82100 20700
L82410 20700
" />
<path d="M83000 22000
L81500 22000
" />
<text x="82250" y="21900"
textLength="540" font-size="660" lengthAdjust="spacingAndGlyphs"
text-anchor="middle" opacity="0">5</text>
<path d="M82360 21370
L82130 21370
L82100 21610
L82130 21590
L82170 21560
L82290 21560
L82340 21590
L82360 21610
L82390 21660
L82390 21780
L82360 21820
L82340 21850
L82290 21870
L82170 21870
L82130 21850
L82100 21820
" />
</g>
<g style="fill:#008484; fill-opacity:0.0; 
stroke:#008484; stroke-width:60; stroke-opacity:1; 
stroke-linecap:round; stroke-linejoin:round;">
<text x="84240" y="20010"
textLength="920" font-size="660" lengthAdjust="spacingAndGlyphs"
text-anchor="middle" opacity="0">J3</text>
<path d="M84070 19480
L84070 19840
L84040 19910
L84000 19960
L83930 19980
L83880 19980
" />
<path d="M84260 19480
L84570 19480
L84400 19670
L84470 19670
L84520 19700
L84540 19720
L84570 19770
L84570 19890
L84540 19930
L84520 19960
L84470 19980
L84330 19980
L84280 19960
L84260 19930
" />
<text x="83330" y="25270"
textLength="7660" font-size="660" lengthAdjust="spacingAndGlyphs"
text-anchor="middle" opacity="0">Conn_01x05_Female</text>
<path d="M79930 25190
L79910 25220
L79840 25240
L79790 25240
L79720 25220
L79670 25170
L79650 25120
L79620 25030
L79620 24960
L79650 24860
L79670 24810
L79720 24770
L79790 24740
L79840 24740
L79910 24770
L79930 24790
" />
<path d="M80220 25240
L80170 25220
L80150 25190
L80120 25150
L80120 25000
L80150 24960
L80170 24930
L80220 24910
L80290 24910
L80340 24930
L80360 24960
L80380 25000
L80380 25150
L80360 25190
L80340 25220
L80290 25240
L80220 25240
" />
<path d="M80600 24910
L80600 25240
" />
<path d="M80600 24960
L80620 24930
L80670 24910
L80740 24910
L80790 24930
L80810 24980
L80810 25240
" />
<path d="M81050 24910
L81050 25240
" />
<path d="M81050 24960
L81080 24930
L81120 24910
L81190 24910
L81240 24930
L81270 24980
L81270 25240
" />
<path d="M81380 25290
L81770 25290
" />
<path d="M81980 24740
L82030 24740
L82080 24770
L82100 24790
L82120 24840
L82150 24930
L82150 25050
L82120 25150
L82100 25190
L82080 25220
L82030 25240
L81980 25240
L81930 25220
L81910 25190
L81880 25150
L81860 25050
L81860 24930
L81880 24840
L81910 24790
L81930 24770
L81980 24740
" />
<path d="M82620 25240
L82340 25240
" />
<path d="M82480 25240
L82480 24740
L82430 24810
L82380 24860
L82340 24880
" />
<path d="M82790 25240
L83050 24910
" />
<path d="M82790 24910
L83050 25240
" />
<path d="M83340 24740
L83380 24740
L83430 24770
L83460 24790
L83480 24840
L83500 24930
L83500 25050
L83480 25150
L83460 25190
L83430 25220
L83380 25240
L83340 25240
L83290 25220
L83270 25190
L83240 25150
L83220 25050
L83220 24930
L83240 24840
L83270 24790
L83290 24770
L83340 24740
" />
<path d="M83960 24740
L83720 24740
L83690 24980
L83720 24960
L83770 24930
L83880 24930
L83930 24960
L83960 24980
L83980 25030
L83980 25150
L83960 25190
L83930 25220
L83880 25240
L83770 25240
L83720 25220
L83690 25190
" />
<path d="M84080 25290
L84460 25290
" />
<path d="M84740 24980
L84580 24980
" />
<path d="M84580 25240
L84580 24740
L84810 24740
" />
<path d="M85190 25220
L85150 25240
L85050 25240
L85000 25220
L84980 25170
L84980 24980
L85000 24930
L85050 24910
L85150 24910
L85190 24930
L85220 24980
L85220 25030
L84980 25070
" />
<path d="M85430 25240
L85430 24910
" />
<path d="M85430 24960
L85460 24930
L85500 24910
L85580 24910
L85620 24930
L85650 24980
L85650 25240
" />
<path d="M85650 24980
L85670 24930
L85720 24910
L85790 24910
L85840 24930
L85860 24980
L85860 25240
" />
<path d="M86310 25240
L86310 24980
L86290 24930
L86240 24910
L86150 24910
L86100 24930
" />
<path d="M86310 25220
L86270 25240
L86150 25240
L86100 25220
L86080 25170
L86080 25120
L86100 25070
L86150 25050
L86270 25050
L86310 25030
" />
<path d="M86620 25240
L86580 25220
L86550 25170
L86550 24740
" />
<path d="M87000 25220
L86960 25240
L86860 25240
L86810 25220
L86790 25170
L86790 24980
L86810 24930
L86860 24910
L86960 24910
L87000 24930
L87030 24980
L87030 25030
L86790 25070
" />
</g>
</g>
<g style="fill:#008484; fill-opacity:0.0; 
stroke:#008484; stroke-width:0; stroke-opacity:1; 
stroke-linecap:round; stroke-linejoin:round;">
<g >
</g>
<g style="fill:#840000; fill-opacity:0.0; 
stroke:#840000; stroke-width:0; stroke-opacity:1; 
stroke-linecap:round; stroke-linejoin:round;">
</g>
<g style="fill:#FFFFC2; fill-opacity:0.0; 
stroke:#FFFFC2; stroke-width:0; stroke-opacity:1; 
stroke-linecap:round; stroke-linejoin:round;">
</g>
<g style="fill:#FFFFC2; fill-opacity:0.6; 
stroke:#FFFFC2; stroke-width:0; stroke-opacity:1; 
stroke-linecap:round; stroke-linejoin:round;">
<rect x="52500" y="30250" width="4000" height="2750" rx="0" />
</g>
<g style="fill:#840000; fill-opacity:0.6; 
stroke:#840000; stroke-width:0; stroke-opacity:1; 
stroke-linecap:round; stroke-linejoin:round;">
</g>
<g style="fill:#840000; fill-opacity:0.0; 
stroke:#840000; stroke-width:100; stroke-opacity:1; 
stroke-linecap:round; stroke-linejoin:round;">
<rect x="52500" y="30250" width="4000" height="2750" rx="0" />
<rect x="52500" y="30250" width="4000" height="2750" rx="0" />
</g>
<g style="fill:#840000; fill-opacity:0.0; 
stroke:#840000; stroke-width:60; stroke-opacity:1; 
stroke-linecap:round; stroke-linejoin:round;">
<path d="M52500 31000
L51500 31000
" />
</g>
<g style="fill:#008484; fill-opacity:0.0; 
stroke:#008484; stroke-width:60; stroke-opacity:1; 
stroke-linecap:round; stroke-linejoin:round;">
<text x="52600" y="31250"
textLength="730" font-size="660" lengthAdjust="spacingAndGlyphs"
text-anchor="start" opacity="0">VI</text>
<path d="M52670 30720
L52840 31220
L53010 30720
" />
<path d="M53170 31220
L53170 30720
" />
</g>
<g style="fill:#840000; fill-opacity:0.0; 
stroke:#840000; stroke-width:60; stroke-opacity:1; 
stroke-linecap:round; stroke-linejoin:round;">
<text x="52000" y="30900"
textLength="540" font-size="660" lengthAdjust="spacingAndGlyphs"
text-anchor="middle" opacity="0">1</text>
<path d="M52140 30870
L51850 30870
" />
<path d="M52000 30870
L52000 30370
L51950 30440
L51900 30490
L51850 30510
" />
<path d="M54500 33000
L54500 34000
" />
</g>
<g style="fill:#008484; fill-opacity:0.0; 
stroke:#008484; stroke-width:60; stroke-opacity:1; 
stroke-linecap:round; stroke-linejoin:round;">
<g transform="rotate(-90 54500 32900)">
<text x="54500" y="33150"
textLength="1580" font-size="660" lengthAdjust="spacingAndGlyphs"
text-anchor="start" opacity="0">GND</text>
</g>
<path d="M54250 32480
L54220 32530
L54220 32600
L54250 32670
L54290 32720
L54340 32750
L54440 32770
L54510 32770
L54600 32750
L54650 32720
L54700 32670
L54720 32600
L54720 32560
L54700 32480
L54670 32460
L54510 32460
L54510 32560
" />
<path d="M54720 32250
L54220 32250
L54720 31960
L54220 31960
" />
<path d="M54720 31720
L54220 31720
L54220 31600
L54250 31530
L54290 31480
L54340 31460
L54440 31440
L54510 31440
L54600 31460
L54650 31480
L54700 31530
L54720 31600
L54720 31720
" />
</g>
<g style="fill:#840000; fill-opacity:0.0; 
stroke:#840000; stroke-width:60; stroke-opacity:1; 
stroke-linecap:round; stroke-linejoin:round;">
<g transform="rotate(-90 54400 33500)">
<text x="54400" y="33500"
textLength="540" font-size="660" lengthAdjust="spacingAndGlyphs"
text-anchor="middle" opacity="0">2</text>
</g>
<path d="M53920 33640
L53900 33610
L53870 33570
L53870 33450
L53900 33400
L53920 33380
L53970 33350
L54010 33350
L54090 33380
L54370 33660
L54370 33350
" />
<path d="M56500 31000
L57500 31000
" />
</g>
<g style="fill:#008484; fill-opacity:0.0; 
stroke:#008484; stroke-width:60; stroke-opacity:1; 
stroke-linecap:round; stroke-linejoin:round;">
<text x="56400" y="31250"
textLength="1010" font-size="660" lengthAdjust="spacingAndGlyphs"
text-anchor="end" opacity="0">VO</text>
<path d="M55460 30720
L55630 31220
L55790 30720
" />
<path d="M56060 30720
L56150 30720
L56200 30750
L56250 30790
L56270 30890
L56270 31050
L56250 31150
L56200 31200
L56150 31220
L56060 31220
L56010 31200
L55960 31150
L55940 31050
L55940 30890
L55960 30790
L56010 30750
L56060 30720
" />
</g>
<g style="fill:#840000; fill-opacity:0.0; 
stroke:#840000; stroke-width:60; stroke-opacity:1; 
stroke-linecap:round; stroke-linejoin:round;">
<text x="57000" y="30900"
textLength="540" font-size="660" lengthAdjust="spacingAndGlyphs"
text-anchor="middle" opacity="0">3</text>
<path d="M56830 30370
L57140 30370
L56970 30560
L57040 30560
L57090 30590
L57110 30610
L57140 30660
L57140 30780
L57110 30820
L57090 30850
L57040 30870
L56900 30870
L56850 30850
L56830 30820
" />
</g>
<g style="fill:#008484; fill-opacity:0.0; 
stroke:#008484; stroke-width:60; stroke-opacity:1; 
stroke-linecap:round; stroke-linejoin:round;">
<text x="54500" y="28850"
textLength="1060" font-size="660" lengthAdjust="spacingAndGlyphs"
text-anchor="middle" opacity="0">U1</text>
<path d="M54110 28320
L54110 28730
L54140 28770
L54160 28800
L54210 28820
L54300 28820
L54350 28800
L54380 28770
L54400 28730
L54400 28320
" />
<path d="M54900 28820
L54610 28820
" />
<path d="M54760 28820
L54760 28320
L54710 28390
L54660 28440
L54610 28460
" />
<text x="54500" y="29760"
textLength="6200" font-size="660" lengthAdjust="spacingAndGlyphs"
text-anchor="middle" opacity="0">LDO 3.3V TO220</text>
<path d="M51780 29730
L51540 29730
L51540 29230
" />
<path d="M51950 29730
L51950 29230
L52070 29230
L52140 29260
L52190 29300
L52210 29350
L52230 29450
L52230 29520
L52210 29610
L52190 29660
L52140 29710
L52070 29730
L51950 29730
" />
<path d="M52540 29230
L52640 29230
L52690 29260
L52730 29300
L52760 29400
L52760 29560
L52730 29660
L52690 29710
L52640 29730
L52540 29730
L52500 29710
L52450 29660
L52420 29560
L52420 29400
L52450 29300
L52500 29260
L52540 29230
" />
<path d="M53300 29230
L53610 29230
L53450 29420
L53520 29420
L53570 29450
L53590 29470
L53610 29520
L53610 29640
L53590 29680
L53570 29710
L53520 29730
L53380 29730
L53330 29710
L53300 29680
" />
<path d="M53830 29680
L53850 29710
L53830 29730
L53800 29710
L53830 29680
L53830 29730
" />
<path d="M54020 29230
L54330 29230
L54160 29420
L54230 29420
L54280 29450
L54300 29470
L54330 29520
L54330 29640
L54300 29680
L54280 29710
L54230 29730
L54090 29730
L54040 29710
L54020 29680
" />
<path d="M54470 29230
L54640 29730
L54800 29230
" />
<path d="M55280 29230
L55570 29230
" />
<path d="M55420 29730
L55420 29230
" />
<path d="M55830 29230
L55920 29230
L55970 29260
L56020 29300
L56040 29400
L56040 29560
L56020 29660
L55970 29710
L55920 29730
L55830 29730
L55780 29710
L55730 29660
L55710 29560
L55710 29400
L55730 29300
L55780 29260
L55830 29230
" />
<path d="M56230 29280
L56260 29260
L56300 29230
L56420 29230
L56470 29260
L56500 29280
L56520 29330
L56520 29370
L56500 29450
L56210 29730
L56520 29730
" />
<path d="M56710 29280
L56730 29260
L56780 29230
L56900 29230
L56950 29260
L56970 29280
L57000 29330
L57000 29370
L56970 29450
L56690 29730
L57000 29730
" />
<path d="M57300 29230
L57350 29230
L57400 29260
L57420 29280
L57450 29330
L57470 29420
L57470 29540
L57450 29640
L57420 29680
L57400 29710
L57350 29730
L57300 29730
L57260 29710
L57230 29680
L57210 29640
L57190 29540
L57190 29420
L57210 29330
L57230 29280
L57260 29260
L57300 29230
" />
</g>
</g>
<g style="fill:#008484; fill-opacity:0.0; 
stroke:#008484; stroke-width:0; stroke-opacity:1; 
stroke-linecap:round; stroke-linejoin:round;">
<g >
</g>
<g style="fill:#840000; fill-opacity:0.0; 
stroke:#840000; stroke-width:0; stroke-opacity:1; 
stroke-linecap:round; stroke-linejoin:round;">
</g>
<g style="fill:#FFFFC2; fill-opacity:0.0; 
stroke:#FFFFC2; stroke-width:0; stroke-opacity:1; 
stroke-linecap:round; stroke-linejoin:round;">
</g>
<g style="fill:#FFFFC2; fill-opacity:0.6; 
stroke:#FFFFC2; stroke-width:0; stroke-opacity:1; 
stroke-linecap:round; stroke-linejoin:round;">
<rect x="24000" y="18000" width="4000" height="6000" rx="0" />
</g>
<g style="fill:#840000; fill-opacity:0.6; 
stroke:#840000; stroke-width:0; stroke-opacity:1; 
stroke-linecap:round; stroke-linejoin:round;">
</g>
<g style="fill:#840000; fill-opacity:0.0; 
stroke:#840000; stroke-width:100; stroke-opacity:1; 
stroke-linecap:round; stroke-linejoin:round;">
<rect x="24000" y="18000" width="4000" height="6000" rx="0" />
</g>
<g style="fill:#840000; fill-opacity:1.0; 
stroke:#840000; stroke-width:100; stroke-opacity:1; 
stroke-linecap:round; stroke-linejoin:round;">
<circle cx="24500" cy="20150" r="250" /> 
<circle cx="25750" cy="19650" r="150" /> 
</g>
<g style="fill:#840000; fill-opacity:0.0; 
stroke:#840000; stroke-width:100; stroke-opacity:1; 
stroke-linecap:round; stroke-linejoin:round;">
<rect x="24000" y="18000" width="4000" height="6000" rx="0" />
</g>
<g style="fill:#840000; fill-opacity:1.0; 
stroke:#840000; stroke-width:60; stroke-opacity:1; 
stroke-linecap:round; stroke-linejoin:round;">
<rect x="24500" y="18800" width="500" height="400" rx="0" />
</g>
<g style="fill:#840000; fill-opacity:0.0; 
stroke:#840000; stroke-width:60; stroke-opacity:1; 
stroke-linecap:round; stroke-linejoin:round;">
<rect x="25950" y="23700" width="100" height="300" rx="0" />
</g>
<g style="fill:#840000; fill-opacity:1.0; 
stroke:#840000; stroke-width:100; stroke-opacity:1; 
stroke-linecap:round; stroke-linejoin:round;">
<rect x="25800" y="20500" width="300" height="300" rx="0" />
</g>
<g style="fill:#840000; fill-opacity:0.0; 
stroke:#840000; stroke-width:60; stroke-opacity:1; 
stroke-linecap:round; stroke-linejoin:round;">
<rect x="27700" y="21950" width="300" height="100" rx="0" />
<rect x="27700" y="20950" width="300" height="100" rx="0" />
<rect x="27700" y="18950" width="300" height="100" rx="0" />
</g>
<g style="fill:#840000; fill-opacity:0.0; 
stroke:#840000; stroke-width:100; stroke-opacity:1; 
stroke-linecap:round; stroke-linejoin:round;">
<path style="fill:#840000; fill-opacity:0.0; 
stroke:#840000; stroke-width:100; stroke-opacity:1; 
stroke-linecap:round; stroke-linejoin:round;fill:none"
d="M 25250,20150
26250,20150
" /> 
<path style="fill:#840000; fill-opacity:0.0; 
stroke:#840000; stroke-width:100; stroke-opacity:1; 
stroke-linecap:round; stroke-linejoin:round;fill:none"
d="M 24750,20150
25000,20150
25500,19650
25750,19650
" /> 
<path style="fill:#840000; fill-opacity:0.0; 
stroke:#840000; stroke-width:100; stroke-opacity:1; 
stroke-linecap:round; stroke-linejoin:round;fill:none"
d="M 25000,20150
25250,20150
25500,20650
26000,20650
" /> 
</g>
<g style="fill:#840000; fill-opacity:1.0; 
stroke:#840000; stroke-width:100; stroke-opacity:1; 
stroke-linecap:round; stroke-linejoin:round;">
<path style="fill:#840000; fill-opacity:1.0; 
stroke:#840000; stroke-width:100; stroke-opacity:1; 
stroke-linecap:round; stroke-linejoin:round;fill-rule:evenodd;"
d="M 26250,19900
26250,20400
26750,20150
Z" /> 
</g>
<g style="fill:#840000; fill-opacity:0.0; 
stroke:#840000; stroke-width:60; stroke-opacity:1; 
stroke-linecap:round; stroke-linejoin:round;">
<path style="fill:#840000; fill-opacity:0.0; 
stroke:#840000; stroke-width:60; stroke-opacity:1; 
stroke-linecap:round; stroke-linejoin:round;fill:none"
d="M 24400,19300
25100,19300
25100,18750
24950,18600
24550,18600
24400,18750
Z" /> 
<path d="M28000 19000
L29000 19000
" />
</g>
<g style="fill:#008484; fill-opacity:0.0; 
stroke:#008484; stroke-width:60; stroke-opacity:1; 
stroke-linecap:round; stroke-linejoin:round;">
<text x="27600" y="19250"
textLength="1990" font-size="660" lengthAdjust="spacingAndGlyphs"
text-anchor="end" opacity="0">VBUS</text>
<path d="M25680 18720
L25850 19220
L26020 18720
" />
<path d="M26350 18960
L26420 18980
L26450 19010
L26470 19050
L26470 19130
L26450 19170
L26420 19200
L26370 19220
L26180 19220
L26180 18720
L26350 18720
L26400 18750
L26420 18770
L26450 18820
L26450 18860
L26420 18910
L26400 18940
L26350 18960
L26180 18960
" />
<path d="M26680 18720
L26680 19130
L26710 19170
L26730 19200
L26780 19220
L26870 19220
L26920 19200
L26950 19170
L26970 19130
L26970 18720
" />
<path d="M27180 19200
L27260 19220
L27370 19220
L27420 19200
L27450 19170
L27470 19130
L27470 19080
L27450 19030
L27420 19010
L27370 18980
L27280 18960
L27230 18940
L27210 18910
L27180 18860
L27180 18820
L27210 18770
L27230 18750
L27280 18720
L27400 18720
L27470 18750
" />
</g>
<g style="fill:#840000; fill-opacity:0.0; 
stroke:#840000; stroke-width:60; stroke-opacity:1; 
stroke-linecap:round; stroke-linejoin:round;">
<text x="28500" y="18900"
textLength="540" font-size="660" lengthAdjust="spacingAndGlyphs"
text-anchor="middle" opacity="0">1</text>
<path d="M28640 18870
L28350 18870
" />
<path d="M28500 18870
L28500 18370
L28450 18440
L28400 18490
L28350 18510
" />
<path d="M28000 22000
L29000 22000
" />
</g>
<g style="fill:#008484; fill-opacity:0.0; 
stroke:#008484; stroke-width:60; stroke-opacity:1; 
stroke-linecap:round; stroke-linejoin:round;">
<text x="27600" y="22250"
textLength="1180" font-size="660" lengthAdjust="spacingAndGlyphs"
text-anchor="end" opacity="0">D-</text>
<path d="M26570 22220
L26570 21720
L26680 21720
L26760 21750
L26800 21790
L26830 21840
L26850 21940
L26850 22010
L26830 22100
L26800 22150
L26760 22200
L26680 22220
L26570 22220
" />
<path d="M27070 22030
L27450 22030
" />
</g>
<g style="fill:#840000; fill-opacity:0.0; 
stroke:#840000; stroke-width:60; stroke-opacity:1; 
stroke-linecap:round; stroke-linejoin:round;">
<text x="28500" y="21900"
textLength="540" font-size="660" lengthAdjust="spacingAndGlyphs"
text-anchor="middle" opacity="0">2</text>
<path d="M28350 21420
L28380 21400
L28420 21370
L28540 21370
L28590 21400
L28610 21420
L28640 21470
L28640 21510
L28610 21590
L28330 21870
L28640 21870
" />
<path d="M28000 21000
L29000 21000
" />
</g>
<g style="fill:#008484; fill-opacity:0.0; 
stroke:#008484; stroke-width:60; stroke-opacity:1; 
stroke-linecap:round; stroke-linejoin:round;">
<text x="27600" y="21250"
textLength="1180" font-size="660" lengthAdjust="spacingAndGlyphs"
text-anchor="end" opacity="0">D+</text>
<path d="M26570 21220
L26570 20720
L26680 20720
L26760 20750
L26800 20790
L26830 20840
L26850 20940
L26850 21010
L26830 21100
L26800 21150
L26760 21200
L26680 21220
L26570 21220
" />
<path d="M27070 21030
L27450 21030
" />
<path d="M27260 21220
L27260 20840
" />
</g>
<g style="fill:#840000; fill-opacity:0.0; 
stroke:#840000; stroke-width:60; stroke-opacity:1; 
stroke-linecap:round; stroke-linejoin:round;">
<text x="28500" y="20900"
textLength="540" font-size="660" lengthAdjust="spacingAndGlyphs"
text-anchor="middle" opacity="0">3</text>
<path d="M28330 20370
L28640 20370
L28470 20560
L28540 20560
L28590 20590
L28610 20610
L28640 20660
L28640 20780
L28610 20820
L28590 20850
L28540 20870
L28400 20870
L28350 20850
L28330 20820
" />
<path d="M26000 24000
L26000 25000
" />
</g>
<g style="fill:#008484; fill-opacity:0.0; 
stroke:#008484; stroke-width:60; stroke-opacity:1; 
stroke-linecap:round; stroke-linejoin:round;">
<g transform="rotate(-90 26000 23600)">
<text x="26000" y="23850"
textLength="1580" font-size="660" lengthAdjust="spacingAndGlyphs"
text-anchor="start" opacity="0">GND</text>
</g>
<path d="M25750 23180
L25720 23230
L25720 23300
L25750 23370
L25790 23420
L25840 23450
L25940 23470
L26010 23470
L26100 23450
L26150 23420
L26200 23370
L26220 23300
L26220 23260
L26200 23180
L26170 23160
L26010 23160
L26010 23260
" />
<path d="M26220 22950
L25720 22950
L26220 22660
L25720 22660
" />
<path d="M26220 22420
L25720 22420
L25720 22300
L25750 22230
L25790 22180
L25840 22160
L25940 22140
L26010 22140
L26100 22160
L26150 22180
L26200 22230
L26220 22300
L26220 22420
" />
</g>
<g style="fill:#840000; fill-opacity:0.0; 
stroke:#840000; stroke-width:60; stroke-opacity:1; 
stroke-linecap:round; stroke-linejoin:round;">
<g transform="rotate(-90 25900 24500)">
<text x="25900" y="24500"
textLength="540" font-size="660" lengthAdjust="spacingAndGlyphs"
text-anchor="middle" opacity="0">4</text>
</g>
<path d="M25540 24400
L25870 24400
" />
<path d="M25350 24520
L25700 24640
L25700 24330
" />
<path d="M25000 24000
L25000 25000
" />
</g>
<g style="fill:#008484; fill-opacity:0.0; 
stroke:#008484; stroke-width:60; stroke-opacity:1; 
stroke-linecap:round; stroke-linejoin:round;">
<g transform="rotate(-90 25000 23600)">
<text x="25000" y="23850"
textLength="2370" font-size="660" lengthAdjust="spacingAndGlyphs"
text-anchor="start" opacity="0">Shield</text>
</g>
<path d="M25200 23470
L25220 23400
L25220 23280
L25200 23230
L25170 23210
L25130 23180
L25080 23180
L25030 23210
L25010 23230
L24980 23280
L24960 23370
L24940 23420
L24910 23450
L24860 23470
L24820 23470
L24770 23450
L24750 23420
L24720 23370
L24720 23260
L24750 23180
" />
<path d="M25220 22970
L24720 22970
" />
<path d="M25220 22760
L24960 22760
L24910 22780
L24890 22830
L24890 22900
L24910 22950
L24940 22970
" />
<path d="M25220 22520
L24890 22520
" />
<path d="M24720 22520
L24750 22540
L24770 22520
L24750 22490
L24720 22520
L24770 22520
" />
<path d="M25200 22090
L25220 22140
L25220 22230
L25200 22280
L25150 22300
L24960 22300
L24910 22280
L24890 22230
L24890 22140
L24910 22090
L24960 22070
L25010 22070
L25050 22300
" />
<path d="M25220 21780
L25200 21830
L25150 21850
L24720 21850
" />
<path d="M25220 21370
L24720 21370
" />
<path d="M25200 21370
L25220 21420
L25220 21520
L25200 21570
L25170 21590
L25130 21610
L24980 21610
L24940 21590
L24910 21570
L24890 21520
L24890 21420
L24910 21370
" />
</g>
<g style="fill:#840000; fill-opacity:0.0; 
stroke:#840000; stroke-width:60; stroke-opacity:1; 
stroke-linecap:round; stroke-linejoin:round;">
<g transform="rotate(-90 24900 24500)">
<text x="24900" y="24500"
textLength="540" font-size="660" lengthAdjust="spacingAndGlyphs"
text-anchor="middle" opacity="0">5</text>
</g>
<path d="M24370 24380
L24370 24610
L24610 24640
L24590 24610
L24560 24570
L24560 24450
L24590 24400
L24610 24380
L24660 24350
L24780 24350
L24820 24380
L24850 24400
L24870 24450
L24870 24570
L24850 24610
L24820 24640
" />
</g>
<g style="fill:#008484; fill-opacity:0.0; 
stroke:#008484; stroke-width:60; stroke-opacity:1; 
stroke-linecap:round; stroke-linejoin:round;">
<text x="26570" y="16600"
textLength="920" font-size="660" lengthAdjust="spacingAndGlyphs"
text-anchor="middle" opacity="0">J1</text>
<path d="M26400 16070
L26400 16430
L26370 16500
L26330 16550
L26260 16570
L26210 16570
" />
<path d="M26900 16570
L26610 16570
" />
<path d="M26760 16570
L26760 16070
L26710 16140
L26660 16190
L26610 16210
" />
<text x="26570" y="17510"
textLength="2440" font-size="660" lengthAdjust="spacingAndGlyphs"
text-anchor="middle" opacity="0">USB_B</text>
<path d="M25490 16980
L25490 17390
L25520 17430
L25540 17460
L25590 17480
L25680 17480
L25730 17460
L25760 17430
L25780 17390
L25780 16980
" />
<path d="M25990 17460
L26070 17480
L26180 17480
L26230 17460
L26260 17430
L26280 17390
L26280 17340
L26260 17290
L26230 17270
L26180 17240
L26090 17220
L26040 17200
L26020 17170
L25990 17120
L25990 17080
L26020 17030
L26040 17010
L26090 16980
L26210 16980
L26280 17010
" />
<path d="M26660 17220
L26730 17240
L26760 17270
L26780 17310
L26780 17390
L26760 17430
L26730 17460
L26680 17480
L26490 17480
L26490 16980
L26660 16980
L26710 17010
L26730 17030
L26760 17080
L26760 17120
L26730 17170
L26710 17200
L26660 17220
L26490 17220
" />
<path d="M26870 17530
L27260 17530
" />
<path d="M27540 17220
L27610 17240
L27640 17270
L27660 17310
L27660 17390
L27640 17430
L27610 17460
L27570 17480
L27370 17480
L27370 16980
L27540 16980
L27590 17010
L27610 17030
L27640 17080
L27640 17120
L27610 17170
L27590 17200
L27540 17220
L27370 17220
" />
</g>
</g>
<g style="fill:#008484; fill-opacity:0.0; 
stroke:#008484; stroke-width:0; stroke-opacity:1; 
stroke-linecap:round; stroke-linejoin:round;">
<g >
</g>
<g style="fill:#840000; fill-opacity:0.0; 
stroke:#840000; stroke-width:0; stroke-opacity:1; 
stroke-linecap:round; stroke-linejoin:round;">
</g>
<g style="fill:#FFFFC2; fill-opacity:0.0; 
stroke:#FFFFC2; stroke-width:0; stroke-opacity:1; 
stroke-linecap:round; stroke-linejoin:round;">
</g>
<g style="fill:#FFFFC2; fill-opacity:0.6; 
stroke:#FFFFC2; stroke-width:0; stroke-opacity:1; 
stroke-linecap:round; stroke-linejoin:round;">
<rect x="25000" y="40000" width="2000" height="3000" rx="0" />
</g>
<g style="fill:#840000; fill-opacity:0.6; 
stroke:#840000; stroke-width:0; stroke-opacity:1; 
stroke-linecap:round; stroke-linejoin:round;">
</g>
<g style="fill:#840000; fill-opacity:0.0; 
stroke:#840000; stroke-width:100; stroke-opacity:1; 
stroke-linecap:round; stroke-linejoin:round;">
<rect x="25000" y="40000" width="2000" height="3000" rx="0" />
</g>
<g style="fill:#840000; fill-opacity:0.0; 
stroke:#840000; stroke-width:60; stroke-opacity:1; 
stroke-linecap:round; stroke-linejoin:round;">
<rect x="26500" y="42450" width="500" height="100" rx="0" />
<rect x="26500" y="41450" width="500" height="100" rx="0" />
<rect x="26500" y="40450" width="500" height="100" rx="0" />
</g>
<g style="fill:#840000; fill-opacity:0.0; 
stroke:#840000; stroke-width:100; stroke-opacity:1; 
stroke-linecap:round; stroke-linejoin:round;">
<rect x="25000" y="40000" width="2000" height="3000" rx="0" />
</g>
<g style="fill:#840000; fill-opacity:0.0; 
stroke:#840000; stroke-width:60; stroke-opacity:1; 
stroke-linecap:round; stroke-linejoin:round;">
<rect x="25000" y="42450" width="500" height="100" rx="0" />
<rect x="25000" y="41450" width="500" height="100" rx="0" />
<rect x="25000" y="40450" width="500" height="100" rx="0" />
<path d="M27000 40500
L28500 40500
" />
<text x="27750" y="40400"
textLength="540" font-size="660" lengthAdjust="spacingAndGlyphs"
text-anchor="middle" opacity="0">1</text>
<path d="M27890 40370
L27600 40370
" />
<path d="M27750 40370
L27750 39870
L27700 39940
L27650 39990
L27600 40010
" />
<path d="M25000 40500
L23500 40500
" />
<text x="24250" y="40400"
textLength="540" font-size="660" lengthAdjust="spacingAndGlyphs"
text-anchor="middle" opacity="0">2</text>
<path d="M24100 39920
L24130 39900
L24170 39870
L24290 39870
L24340 39900
L24360 39920
L24390 39970
L24390 40010
L24360 40090
L24080 40370
L24390 40370
" />
<path d="M27000 41500
L28500 41500
" />
<text x="27750" y="41400"
textLength="540" font-size="660" lengthAdjust="spacingAndGlyphs"
text-anchor="middle" opacity="0">3</text>
<path d="M27580 40870
L27890 40870
L27720 41060
L27790 41060
L27840 41090
L27860 41110
L27890 41160
L27890 41280
L27860 41320
L27840 41350
L27790 41370
L27650 41370
L27600 41350
L27580 41320
" />
<path d="M25000 41500
L23500 41500
" />
<text x="24250" y="41400"
textLength="540" font-size="660" lengthAdjust="spacingAndGlyphs"
text-anchor="middle" opacity="0">4</text>
<path d="M24340 41040
L24340 41370
" />
<path d="M24220 40850
L24100 41200
L24410 41200
" />
<path d="M27000 42500
L28500 42500
" />
<text x="27750" y="42400"
textLength="540" font-size="660" lengthAdjust="spacingAndGlyphs"
text-anchor="middle" opacity="0">5</text>
<path d="M27860 41870
L27630 41870
L27600 42110
L27630 42090
L27670 42060
L27790 42060
L27840 42090
L27860 42110
L27890 42160
L27890 42280
L27860 42320
L27840 42350
L27790 42370
L27670 42370
L27630 42350
L27600 42320
" />
<path d="M25000 42500
L23500 42500
" />
<text x="24250" y="42400"
textLength="540" font-size="660" lengthAdjust="spacingAndGlyphs"
text-anchor="middle" opacity="0">6</text>
<path d="M24340 41870
L24250 41870
L24200 41900
L24170 41920
L24130 41990
L24100 42090
L24100 42280
L24130 42320
L24150 42350
L24200 42370
L24290 42370
L24340 42350
L24360 42320
L24390 42280
L24390 42160
L24360 42110
L24340 42090
L24290 42060
L24200 42060
L24150 42090
L24130 42110
L24100 42160
" />
</g>
<g style="fill:#008484; fill-opacity:0.0; 
stroke:#008484; stroke-width:60; stroke-opacity:1; 
stroke-linecap:round; stroke-linejoin:round;">
<text x="26000" y="38600"
textLength="920" font-size="660" lengthAdjust="spacingAndGlyphs"
text-anchor="middle" opacity="0">J2</text>
<path d="M25830 38070
L25830 38430
L25800 38500
L25760 38550
L25690 38570
L25640 38570
" />
<path d="M26040 38120
L26070 38100
L26110 38070
L26230 38070
L26280 38100
L26300 38120
L26330 38170
L26330 38210
L26300 38290
L26020 38570
L26330 38570
" />
<text x="26000" y="39510"
textLength="6440" font-size="660" lengthAdjust="spacingAndGlyphs"
text-anchor="middle" opacity="0">Conn_02x03 BTM</text>
<path d="M23210 39430
L23190 39460
L23110 39480
L23070 39480
L23000 39460
L22950 39410
L22920 39360
L22900 39270
L22900 39200
L22920 39100
L22950 39050
L23000 39010
L23070 38980
L23110 38980
L23190 39010
L23210 39030
" />
<path d="M23500 39480
L23450 39460
L23420 39430
L23400 39390
L23400 39240
L23420 39200
L23450 39170
L23500 39150
L23570 39150
L23610 39170
L23640 39200
L23660 39240
L23660 39390
L23640 39430
L23610 39460
L23570 39480
L23500 39480
" />
<path d="M23880 39150
L23880 39480
" />
<path d="M23880 39200
L23900 39170
L23950 39150
L24020 39150
L24070 39170
L24090 39220
L24090 39480
" />
<path d="M24330 39150
L24330 39480
" />
<path d="M24330 39200
L24350 39170
L24400 39150
L24470 39150
L24520 39170
L24540 39220
L24540 39480
" />
<path d="M24660 39530
L25040 39530
" />
<path d="M25260 38980
L25300 38980
L25350 39010
L25380 39030
L25400 39080
L25420 39170
L25420 39290
L25400 39390
L25380 39430
L25350 39460
L25300 39480
L25260 39480
L25210 39460
L25190 39430
L25160 39390
L25140 39290
L25140 39170
L25160 39080
L25190 39030
L25210 39010
L25260 38980
" />
<path d="M25610 39030
L25640 39010
L25690 38980
L25800 38980
L25850 39010
L25880 39030
L25900 39080
L25900 39120
L25880 39200
L25590 39480
L25900 39480
" />
<path d="M26070 39480
L26330 39150
" />
<path d="M26070 39150
L26330 39480
" />
<path d="M26610 38980
L26660 38980
L26710 39010
L26730 39030
L26760 39080
L26780 39170
L26780 39290
L26760 39390
L26730 39430
L26710 39460
L26660 39480
L26610 39480
L26570 39460
L26540 39430
L26520 39390
L26500 39290
L26500 39170
L26520 39080
L26540 39030
L26570 39010
L26610 38980
" />
<path d="M26950 38980
L27260 38980
L27090 39170
L27160 39170
L27210 39200
L27230 39220
L27260 39270
L27260 39390
L27230 39430
L27210 39460
L27160 39480
L27020 39480
L26970 39460
L26950 39430
" />
<path d="M28020 39220
L28090 39240
L28110 39270
L28140 39310
L28140 39390
L28110 39430
L28090 39460
L28040 39480
L27850 39480
L27850 38980
L28020 38980
L28070 39010
L28090 39030
L28110 39080
L28110 39120
L28090 39170
L28070 39200
L28020 39220
L27850 39220
" />
<path d="M28280 38980
L28570 38980
" />
<path d="M28420 39480
L28420 38980
" />
<path d="M28730 39480
L28730 38980
L28900 39340
L29070 38980
L29070 39480
" />
</g>
</g>
<g style="fill:#008484; fill-opacity:0.0; 
stroke:#008484; stroke-width:60; stroke-opacity:1; 
stroke-linecap:round; stroke-linejoin:round;">
</g>
<g style="fill:#008400; fill-opacity:0.0; 
stroke:#008400; stroke-width:60; stroke-opacity:1; 
stroke-linecap:round; stroke-linejoin:round;">
<path d="M57500 31000
L70500 31000
" />
<path d="M98500 19500
L99500 19500
" />
<path d="M99500 19500
L99500 20500
" />
<path d="M61000 19000
L81500 19000
" />
<path d="M99500 20500
L98500 20500
" />
<path d="M48000 31000
L51500 31000
" />
<path d="M48000 26500
L48000 31000
" />
<path d="M61000 26500
L48000 26500
" />
<path d="M61000 19000
L61000 26500
" />
<path d="M70500 21000
L81500 21000
" />
<path d="M70500 31000
L70500 21000
" />
<path d="M29000 19000
L52500 19000
" />
<path d="M54500 46500
L54500 34000
" />
<path d="M17500 46500
L54500 46500
" />
<path d="M17500 42500
L17500 46500
" />
<path d="M23500 42500
L17500 42500
" />
<path d="M17500 40500
L23500 40500
" />
<path d="M17500 35500
L17500 40500
" />
<path d="M41000 35500
L17500 35500
" />
<path d="M41000 20000
L41000 35500
" />
<path d="M81500 20000
L41000 20000
" />
<path d="M55500 19000
L61000 19000
" />
</g>
<g style="fill:#0000C2; fill-opacity:0.0; 
stroke:#0000C2; stroke-width:60; stroke-opacity:1; 
stroke-linecap:round; stroke-linejoin:round;">
<text x="90000" y="14780"
textLength="12390" font-size="660" lengthAdjust="spacingAndGlyphs"
text-anchor="start" opacity="0">Provide VCC=5V for 2-3 to AVR</text>
<path d="M90140 14750
L90140 14250
L90330 14250
L90380 14280
L90410 14300
L90430 14350
L90430 14420
L90410 14470
L90380 14490
L90330 14510
L90140 14510
" />
<path d="M90640 14750
L90640 14420
" />
<path d="M90640 14510
L90670 14470
L90690 14440
L90740 14420
L90790 14420
" />
<path d="M91030 14750
L90980 14730
L90950 14700
L90930 14660
L90930 14510
L90950 14470
L90980 14440
L91030 14420
L91100 14420
L91140 14440
L91170 14470
L91190 14510
L91190 14660
L91170 14700
L91140 14730
L91100 14750
L91030 14750
" />
<path d="M91360 14420
L91480 14750
L91600 14420
" />
<path d="M91790 14750
L91790 14420
" />
<path d="M91790 14250
L91760 14280
L91790 14300
L91810 14280
L91790 14250
L91790 14300
" />
<path d="M92240 14750
L92240 14250
" />
<path d="M92240 14730
L92190 14750
L92100 14750
L92050 14730
L92030 14700
L92000 14660
L92000 14510
L92030 14470
L92050 14440
L92100 14420
L92190 14420
L92240 14440
" />
<path d="M92670 14730
L92620 14750
L92530 14750
L92480 14730
L92450 14680
L92450 14490
L92480 14440
L92530 14420
L92620 14420
L92670 14440
L92690 14490
L92690 14540
L92450 14580
" />
<path d="M93220 14250
L93380 14750
L93550 14250
" />
<path d="M94000 14700
L93980 14730
L93910 14750
L93860 14750
L93790 14730
L93740 14680
L93720 14630
L93690 14540
L93690 14470
L93720 14370
L93740 14320
L93790 14280
L93860 14250
L93910 14250
L93980 14280
L94000 14300
" />
<path d="M94500 14700
L94480 14730
L94410 14750
L94360 14750
L94290 14730
L94240 14680
L94220 14630
L94190 14540
L94190 14470
L94220 14370
L94240 14320
L94290 14280
L94360 14250
L94410 14250
L94480 14280
L94500 14300
" />
<path d="M94720 14490
L95100 14490
" />
<path d="M95100 14630
L94720 14630
" />
<path d="M95570 14250
L95330 14250
L95310 14490
L95330 14470
L95380 14440
L95500 14440
L95550 14470
L95570 14490
L95600 14540
L95600 14660
L95570 14700
L95550 14730
L95500 14750
L95380 14750
L95330 14730
L95310 14700
" />
<path d="M95740 14250
L95910 14750
L96070 14250
" />
<path d="M96550 14420
L96740 14420
" />
<path d="M96620 14750
L96620 14320
L96640 14280
L96690 14250
L96740 14250
" />
<path d="M96980 14750
L96930 14730
L96910 14700
L96880 14660
L96880 14510
L96910 14470
L96930 14440
L96980 14420
L97050 14420
L97100 14440
L97120 14470
L97140 14510
L97140 14660
L97120 14700
L97100 14730
L97050 14750
L96980 14750
" />
<path d="M97360 14750
L97360 14420
" />
<path d="M97360 14510
L97380 14470
L97410 14440
L97450 14420
L97500 14420
" />
<path d="M98030 14300
L98050 14280
L98100 14250
L98220 14250
L98260 14280
L98290 14300
L98310 14350
L98310 14390
L98290 14470
L98000 14750
L98310 14750
" />
<path d="M98530 14560
L98910 14560
" />
<path d="M99100 14250
L99410 14250
L99240 14440
L99310 14440
L99360 14470
L99380 14490
L99410 14540
L99410 14660
L99380 14700
L99360 14730
L99310 14750
L99170 14750
L99120 14730
L99100 14700
" />
<path d="M99930 14420
L100120 14420
" />
<path d="M100000 14250
L100000 14680
L100030 14730
L100070 14750
L100120 14750
" />
<path d="M100360 14750
L100310 14730
L100290 14700
L100260 14660
L100260 14510
L100290 14470
L100310 14440
L100360 14420
L100430 14420
L100480 14440
L100500 14470
L100530 14510
L100530 14660
L100500 14700
L100480 14730
L100430 14750
L100360 14750
" />
<path d="M101100 14610
L101330 14610
" />
<path d="M101050 14750
L101220 14250
L101380 14750
" />
<path d="M101480 14250
L101640 14750
L101810 14250
" />
<path d="M102260 14750
L102100 14510
" />
<path d="M101980 14750
L101980 14250
L102170 14250
L102220 14280
L102240 14300
L102260 14350
L102260 14420
L102240 14470
L102220 14490
L102170 14510
L101980 14510
" />
<text x="90000" y="15590"
textLength="13110" font-size="660" lengthAdjust="spacingAndGlyphs"
text-anchor="start" opacity="0">Provide VCC=3.3V for 3-4 to AVR</text>
<path d="M90140 15560
L90140 15060
L90330 15060
L90380 15090
L90410 15110
L90430 15160
L90430 15230
L90410 15280
L90380 15300
L90330 15320
L90140 15320
" />
<path d="M90640 15560
L90640 15230
" />
<path d="M90640 15320
L90670 15280
L90690 15250
L90740 15230
L90790 15230
" />
<path d="M91030 15560
L90980 15540
L90950 15510
L90930 15470
L90930 15320
L90950 15280
L90980 15250
L91030 15230
L91100 15230
L91140 15250
L91170 15280
L91190 15320
L91190 15470
L91170 15510
L91140 15540
L91100 15560
L91030 15560
" />
<path d="M91360 15230
L91480 15560
L91600 15230
" />
<path d="M91790 15560
L91790 15230
" />
<path d="M91790 15060
L91760 15090
L91790 15110
L91810 15090
L91790 15060
L91790 15110
" />
<path d="M92240 15560
L92240 15060
" />
<path d="M92240 15540
L92190 15560
L92100 15560
L92050 15540
L92030 15510
L92000 15470
L92000 15320
L92030 15280
L92050 15250
L92100 15230
L92190 15230
L92240 15250
" />
<path d="M92670 15540
L92620 15560
L92530 15560
L92480 15540
L92450 15490
L92450 15300
L92480 15250
L92530 15230
L92620 15230
L92670 15250
L92690 15300
L92690 15350
L92450 15390
" />
<path d="M93220 15060
L93380 15560
L93550 15060
" />
<path d="M94000 15510
L93980 15540
L93910 15560
L93860 15560
L93790 15540
L93740 15490
L93720 15440
L93690 15350
L93690 15280
L93720 15180
L93740 15130
L93790 15090
L93860 15060
L93910 15060
L93980 15090
L94000 15110
" />
<path d="M94500 15510
L94480 15540
L94410 15560
L94360 15560
L94290 15540
L94240 15490
L94220 15440
L94190 15350
L94190 15280
L94220 15180
L94240 15130
L94290 15090
L94360 15060
L94410 15060
L94480 15090
L94500 15110
" />
<path d="M94720 15300
L95100 15300
" />
<path d="M95100 15440
L94720 15440
" />
<path d="M95290 15060
L95600 15060
L95430 15250
L95500 15250
L95550 15280
L95570 15300
L95600 15350
L95600 15470
L95570 15510
L95550 15540
L95500 15560
L95360 15560
L95310 15540
L95290 15510
" />
<path d="M95810 15510
L95830 15540
L95810 15560
L95790 15540
L95810 15510
L95810 15560
" />
<path d="M96000 15060
L96310 15060
L96140 15250
L96220 15250
L96260 15280
L96290 15300
L96310 15350
L96310 15470
L96290 15510
L96260 15540
L96220 15560
L96070 15560
L96030 15540
L96000 15510
" />
<path d="M96450 15060
L96620 15560
L96790 15060
" />
<path d="M97260 15230
L97450 15230
" />
<path d="M97330 15560
L97330 15130
L97360 15090
L97410 15060
L97450 15060
" />
<path d="M97690 15560
L97640 15540
L97620 15510
L97600 15470
L97600 15320
L97620 15280
L97640 15250
L97690 15230
L97760 15230
L97810 15250
L97830 15280
L97860 15320
L97860 15470
L97830 15510
L97810 15540
L97760 15560
L97690 15560
" />
<path d="M98070 15560
L98070 15230
" />
<path d="M98070 15320
L98100 15280
L98120 15250
L98170 15230
L98220 15230
" />
<path d="M98720 15060
L99030 15060
L98860 15250
L98930 15250
L98980 15280
L99000 15300
L99030 15350
L99030 15470
L99000 15510
L98980 15540
L98930 15560
L98790 15560
L98740 15540
L98720 15510
" />
<path d="M99240 15370
L99620 15370
" />
<path d="M100070 15230
L100070 15560
" />
<path d="M99950 15040
L99830 15390
L100140 15390
" />
<path d="M100640 15230
L100830 15230
" />
<path d="M100720 15060
L100720 15490
L100740 15540
L100790 15560
L100830 15560
" />
<path d="M101070 15560
L101030 15540
L101000 15510
L100980 15470
L100980 15320
L101000 15280
L101030 15250
L101070 15230
L101140 15230
L101190 15250
L101220 15280
L101240 15320
L101240 15470
L101220 15510
L101190 15540
L101140 15560
L101070 15560
" />
<path d="M101810 15420
L102050 15420
" />
<path d="M101760 15560
L101930 15060
L102100 15560
" />
<path d="M102190 15060
L102360 15560
L102530 15060
" />
<path d="M102980 15560
L102810 15320
" />
<path d="M102690 15560
L102690 15060
L102880 15060
L102930 15090
L102950 15110
L102980 15160
L102980 15230
L102950 15280
L102930 15300
L102880 15320
L102690 15320
" />
<text x="90000" y="16400"
textLength="21270" font-size="660" lengthAdjust="spacingAndGlyphs"
text-anchor="start" opacity="0">VTG (sense) for 1-2 or 4-5 (AVR powered externally) </text>
<path d="M90070 15870
L90240 16370
L90410 15870
" />
<path d="M90500 15870
L90790 15870
" />
<path d="M90640 16370
L90640 15870
" />
<path d="M91220 15900
L91170 15870
L91100 15870
L91030 15900
L90980 15940
L90950 15990
L90930 16090
L90930 16160
L90950 16250
L90980 16300
L91030 16350
L91100 16370
L91140 16370
L91220 16350
L91240 16320
L91240 16160
L91140 16160
" />
<path d="M91980 16560
L91950 16540
L91910 16470
L91880 16420
L91860 16350
L91830 16230
L91830 16130
L91860 16010
L91880 15940
L91910 15900
L91950 15820
L91980 15800
" />
<path d="M92140 16350
L92190 16370
L92290 16370
L92330 16350
L92360 16300
L92360 16280
L92330 16230
L92290 16200
L92220 16200
L92170 16180
L92140 16130
L92140 16110
L92170 16060
L92220 16040
L92290 16040
L92330 16060
" />
<path d="M92760 16350
L92720 16370
L92620 16370
L92570 16350
L92550 16300
L92550 16110
L92570 16060
L92620 16040
L92720 16040
L92760 16060
L92790 16110
L92790 16160
L92550 16200
" />
<path d="M93000 16040
L93000 16370
" />
<path d="M93000 16090
L93030 16060
L93070 16040
L93140 16040
L93190 16060
L93220 16110
L93220 16370
" />
<path d="M93430 16350
L93480 16370
L93570 16370
L93620 16350
L93640 16300
L93640 16280
L93620 16230
L93570 16200
L93500 16200
L93450 16180
L93430 16130
L93430 16110
L93450 16060
L93500 16040
L93570 16040
L93620 16060
" />
<path d="M94050 16350
L94000 16370
L93910 16370
L93860 16350
L93830 16300
L93830 16110
L93860 16060
L93910 16040
L94000 16040
L94050 16060
L94070 16110
L94070 16160
L93830 16200
" />
<path d="M94240 16560
L94260 16540
L94310 16470
L94330 16420
L94360 16350
L94380 16230
L94380 16130
L94360 16010
L94330 15940
L94310 15900
L94260 15820
L94240 15800
" />
<path d="M94930 16040
L95120 16040
" />
<path d="M95000 16370
L95000 15940
L95030 15900
L95070 15870
L95120 15870
" />
<path d="M95360 16370
L95310 16350
L95290 16320
L95260 16280
L95260 16130
L95290 16090
L95310 16060
L95360 16040
L95430 16040
L95480 16060
L95500 16090
L95530 16130
L95530 16280
L95500 16320
L95480 16350
L95430 16370
L95360 16370
" />
<path d="M95740 16370
L95740 16040
" />
<path d="M95740 16130
L95760 16090
L95790 16060
L95830 16040
L95880 16040
" />
<path d="M96690 16370
L96410 16370
" />
<path d="M96550 16370
L96550 15870
L96500 15940
L96450 15990
L96410 16010
" />
<path d="M96910 16180
L97290 16180
" />
<path d="M97500 15920
L97530 15900
L97570 15870
L97690 15870
L97740 15900
L97760 15920
L97790 15970
L97790 16010
L97760 16090
L97480 16370
L97790 16370
" />
<path d="M98450 16370
L98410 16350
L98380 16320
L98360 16280
L98360 16130
L98380 16090
L98410 16060
L98450 16040
L98530 16040
L98570 16060
L98600 16090
L98620 16130
L98620 16280
L98600 16320
L98570 16350
L98530 16370
L98450 16370
" />
<path d="M98830 16370
L98830 16040
" />
<path d="M98830 16130
L98860 16090
L98880 16060
L98930 16040
L98980 16040
" />
<path d="M99740 16040
L99740 16370
" />
<path d="M99620 15850
L99500 16200
L99810 16200
" />
<path d="M100000 16180
L100380 16180
" />
<path d="M100860 15870
L100620 15870
L100600 16110
L100620 16090
L100670 16060
L100790 16060
L100830 16090
L100860 16110
L100880 16160
L100880 16280
L100860 16320
L100830 16350
L100790 16370
L100670 16370
L100620 16350
L100600 16320
" />
<path d="M101620 16560
L101600 16540
L101550 16470
L101530 16420
L101500 16350
L101480 16230
L101480 16130
L101500 16010
L101530 15940
L101550 15900
L101600 15820
L101620 15800
" />
<path d="M101790 16230
L102030 16230
" />
<path d="M101740 16370
L101910 15870
L102070 16370
" />
<path d="M102170 15870
L102330 16370
L102500 15870
" />
<path d="M102950 16370
L102790 16130
" />
<path d="M102670 16370
L102670 15870
L102860 15870
L102910 15900
L102930 15920
L102950 15970
L102950 16040
L102930 16090
L102910 16110
L102860 16130
L102670 16130
" />
<path d="M103550 16040
L103550 16540
" />
<path d="M103550 16060
L103600 16040
L103690 16040
L103740 16060
L103760 16090
L103790 16130
L103790 16280
L103760 16320
L103740 16350
L103690 16370
L103600 16370
L103550 16350
" />
<path d="M104070 16370
L104030 16350
L104000 16320
L103980 16280
L103980 16130
L104000 16090
L104030 16060
L104070 16040
L104140 16040
L104190 16060
L104220 16090
L104240 16130
L104240 16280
L104220 16320
L104190 16350
L104140 16370
L104070 16370
" />
<path d="M104410 16040
L104500 16370
L104600 16130
L104690 16370
L104790 16040
" />
<path d="M105170 16350
L105120 16370
L105030 16370
L104980 16350
L104950 16300
L104950 16110
L104980 16060
L105030 16040
L105120 16040
L105170 16060
L105190 16110
L105190 16160
L104950 16200
" />
<path d="M105410 16370
L105410 16040
" />
<path d="M105410 16130
L105430 16090
L105450 16060
L105500 16040
L105550 16040
" />
<path d="M105910 16350
L105860 16370
L105760 16370
L105720 16350
L105690 16300
L105690 16110
L105720 16060
L105760 16040
L105860 16040
L105910 16060
L105930 16110
L105930 16160
L105690 16200
" />
<path d="M106360 16370
L106360 15870
" />
<path d="M106360 16350
L106310 16370
L106220 16370
L106170 16350
L106140 16320
L106120 16280
L106120 16130
L106140 16090
L106170 16060
L106220 16040
L106310 16040
L106360 16060
" />
<path d="M107170 16350
L107120 16370
L107030 16370
L106980 16350
L106950 16300
L106950 16110
L106980 16060
L107030 16040
L107120 16040
L107170 16060
L107190 16110
L107190 16160
L106950 16200
" />
<path d="M107360 16370
L107620 16040
" />
<path d="M107360 16040
L107620 16370
" />
<path d="M107740 16040
L107930 16040
" />
<path d="M107810 15870
L107810 16300
L107830 16350
L107880 16370
L107930 16370
" />
<path d="M108290 16350
L108240 16370
L108140 16370
L108100 16350
L108070 16300
L108070 16110
L108100 16060
L108140 16040
L108240 16040
L108290 16060
L108310 16110
L108310 16160
L108070 16200
" />
<path d="M108530 16370
L108530 16040
" />
<path d="M108530 16130
L108550 16090
L108570 16060
L108620 16040
L108670 16040
" />
<path d="M108830 16040
L108830 16370
" />
<path d="M108830 16090
L108860 16060
L108910 16040
L108980 16040
L109030 16060
L109050 16110
L109050 16370
" />
<path d="M109500 16370
L109500 16110
L109480 16060
L109430 16040
L109330 16040
L109290 16060
" />
<path d="M109500 16350
L109450 16370
L109330 16370
L109290 16350
L109260 16300
L109260 16250
L109290 16200
L109330 16180
L109450 16180
L109500 16160
" />
<path d="M109810 16370
L109760 16350
L109740 16300
L109740 15870
" />
<path d="M110070 16370
L110030 16350
L110000 16300
L110000 15870
" />
<path d="M110220 16040
L110330 16370
" />
<path d="M110450 16040
L110330 16370
L110290 16490
L110260 16510
L110220 16540
" />
<path d="M110600 16560
L110620 16540
L110670 16470
L110690 16420
L110720 16350
L110740 16230
L110740 16130
L110720 16010
L110690 15940
L110670 15900
L110620 15820
L110600 15800
" />
<text x="76500" y="15090"
textLength="5890" font-size="660" lengthAdjust="spacingAndGlyphs"
text-anchor="start" opacity="0">Use sort pin to</text>
<path d="M76640 14560
L76640 14970
L76670 15010
L76690 15040
L76740 15060
L76830 15060
L76880 15040
L76910 15010
L76930 14970
L76930 14560
" />
<path d="M77140 15040
L77190 15060
L77290 15060
L77330 15040
L77360 14990
L77360 14970
L77330 14920
L77290 14890
L77220 14890
L77170 14870
L77140 14820
L77140 14800
L77170 14750
L77220 14730
L77290 14730
L77330 14750
" />
<path d="M77760 15040
L77720 15060
L77620 15060
L77570 15040
L77550 14990
L77550 14800
L77570 14750
L77620 14730
L77720 14730
L77760 14750
L77790 14800
L77790 14850
L77550 14890
" />
<path d="M78360 15040
L78410 15060
L78500 15060
L78550 15040
L78570 14990
L78570 14970
L78550 14920
L78500 14890
L78430 14890
L78380 14870
L78360 14820
L78360 14800
L78380 14750
L78430 14730
L78500 14730
L78550 14750
" />
<path d="M78860 15060
L78810 15040
L78790 15010
L78760 14970
L78760 14820
L78790 14780
L78810 14750
L78860 14730
L78930 14730
L78980 14750
L79000 14780
L79030 14820
L79030 14970
L79000 15010
L78980 15040
L78930 15060
L78860 15060
" />
<path d="M79240 15060
L79240 14730
" />
<path d="M79240 14820
L79260 14780
L79290 14750
L79330 14730
L79380 14730
" />
<path d="M79480 14730
L79670 14730
" />
<path d="M79550 14560
L79550 14990
L79570 15040
L79620 15060
L79670 15060
" />
<path d="M80220 14730
L80220 15230
" />
<path d="M80220 14750
L80260 14730
L80360 14730
L80410 14750
L80430 14780
L80450 14820
L80450 14970
L80430 15010
L80410 15040
L80360 15060
L80260 15060
L80220 15040
" />
<path d="M80670 15060
L80670 14730
" />
<path d="M80670 14560
L80640 14590
L80670 14610
L80690 14590
L80670 14560
L80670 14610
" />
<path d="M80910 14730
L80910 15060
" />
<path d="M80910 14780
L80930 14750
L80980 14730
L81050 14730
L81100 14750
L81120 14800
L81120 15060
" />
<path d="M81670 14730
L81860 14730
" />
<path d="M81740 14560
L81740 14990
L81760 15040
L81810 15060
L81860 15060
" />
<path d="M82100 15060
L82050 15040
L82030 15010
L82000 14970
L82000 14820
L82030 14780
L82050 14750
L82100 14730
L82170 14730
L82220 14750
L82240 14780
L82260 14820
L82260 14970
L82240 15010
L82220 15040
L82170 15060
L82100 15060
" />
<text x="76500" y="15900"
textLength="8580" font-size="660" lengthAdjust="spacingAndGlyphs"
text-anchor="start" opacity="0">select operation mode</text>
<path d="M76620 15850
L76670 15870
L76760 15870
L76810 15850
L76830 15800
L76830 15780
L76810 15730
L76760 15700
L76690 15700
L76640 15680
L76620 15630
L76620 15610
L76640 15560
L76690 15540
L76760 15540
L76810 15560
" />
<path d="M77240 15850
L77190 15870
L77100 15870
L77050 15850
L77030 15800
L77030 15610
L77050 15560
L77100 15540
L77190 15540
L77240 15560
L77260 15610
L77260 15660
L77030 15700
" />
<path d="M77550 15870
L77500 15850
L77480 15800
L77480 15370
" />
<path d="M77930 15850
L77880 15870
L77790 15870
L77740 15850
L77720 15800
L77720 15610
L77740 15560
L77790 15540
L77880 15540
L77930 15560
L77950 15610
L77950 15660
L77720 15700
" />
<path d="M78380 15850
L78330 15870
L78240 15870
L78190 15850
L78170 15820
L78140 15780
L78140 15630
L78170 15590
L78190 15560
L78240 15540
L78330 15540
L78380 15560
" />
<path d="M78530 15540
L78720 15540
" />
<path d="M78600 15370
L78600 15800
L78620 15850
L78670 15870
L78720 15870
" />
<path d="M79330 15870
L79290 15850
L79260 15820
L79240 15780
L79240 15630
L79260 15590
L79290 15560
L79330 15540
L79410 15540
L79450 15560
L79480 15590
L79500 15630
L79500 15780
L79480 15820
L79450 15850
L79410 15870
L79330 15870
" />
<path d="M79720 15540
L79720 16040
" />
<path d="M79720 15560
L79760 15540
L79860 15540
L79910 15560
L79930 15590
L79950 15630
L79950 15780
L79930 15820
L79910 15850
L79860 15870
L79760 15870
L79720 15850
" />
<path d="M80360 15850
L80310 15870
L80220 15870
L80170 15850
L80140 15800
L80140 15610
L80170 15560
L80220 15540
L80310 15540
L80360 15560
L80380 15610
L80380 15660
L80140 15700
" />
<path d="M80600 15870
L80600 15540
" />
<path d="M80600 15630
L80620 15590
L80640 15560
L80690 15540
L80740 15540
" />
<path d="M81120 15870
L81120 15610
L81100 15560
L81050 15540
L80950 15540
L80910 15560
" />
<path d="M81120 15850
L81070 15870
L80950 15870
L80910 15850
L80880 15800
L80880 15750
L80910 15700
L80950 15680
L81070 15680
L81120 15660
" />
<path d="M81290 15540
L81480 15540
" />
<path d="M81360 15370
L81360 15800
L81380 15850
L81430 15870
L81480 15870
" />
<path d="M81640 15870
L81640 15540
" />
<path d="M81640 15370
L81620 15400
L81640 15420
L81670 15400
L81640 15370
L81640 15420
" />
<path d="M81950 15870
L81910 15850
L81880 15820
L81860 15780
L81860 15630
L81880 15590
L81910 15560
L81950 15540
L82030 15540
L82070 15560
L82100 15590
L82120 15630
L82120 15780
L82100 15820
L82070 15850
L82030 15870
L81950 15870
" />
<path d="M82330 15540
L82330 15870
" />
<path d="M82330 15590
L82360 15560
L82410 15540
L82480 15540
L82530 15560
L82550 15610
L82550 15870
" />
<path d="M83170 15870
L83170 15540
" />
<path d="M83170 15590
L83190 15560
L83240 15540
L83310 15540
L83360 15560
L83380 15610
L83380 15870
" />
<path d="M83380 15610
L83410 15560
L83450 15540
L83530 15540
L83570 15560
L83600 15610
L83600 15870
" />
<path d="M83910 15870
L83860 15850
L83830 15820
L83810 15780
L83810 15630
L83830 15590
L83860 15560
L83910 15540
L83980 15540
L84030 15560
L84050 15590
L84070 15630
L84070 15780
L84050 15820
L84030 15850
L83980 15870
L83910 15870
" />
<path d="M84500 15870
L84500 15370
" />
<path d="M84500 15850
L84450 15870
L84360 15870
L84310 15850
L84290 15820
L84260 15780
L84260 15630
L84290 15590
L84310 15560
L84360 15540
L84450 15540
L84500 15560
" />
<path d="M84930 15850
L84880 15870
L84790 15870
L84740 15850
L84720 15800
L84720 15610
L84740 15560
L84790 15540
L84880 15540
L84930 15560
L84950 15610
L84950 15660
L84720 15700
" />
<text x="31500" y="39160"
textLength="9540" font-size="660" lengthAdjust="spacingAndGlyphs"
text-anchor="start" opacity="0">PIN2 was VTG (VCC now)</text>
<path d="M31640 39130
L31640 38630
L31830 38630
L31880 38660
L31910 38680
L31930 38730
L31930 38800
L31910 38850
L31880 38870
L31830 38890
L31640 38890
" />
<path d="M32140 39130
L32140 38630
" />
<path d="M32380 39130
L32380 38630
L32670 39130
L32670 38630
" />
<path d="M32880 38680
L32910 38660
L32950 38630
L33070 38630
L33120 38660
L33140 38680
L33170 38730
L33170 38770
L33140 38850
L32860 39130
L33170 39130
" />
<path d="M33720 38800
L33810 39130
L33910 38890
L34000 39130
L34100 38800
" />
<path d="M34500 39130
L34500 38870
L34480 38820
L34430 38800
L34330 38800
L34290 38820
" />
<path d="M34500 39110
L34450 39130
L34330 39130
L34290 39110
L34260 39060
L34260 39010
L34290 38960
L34330 38940
L34450 38940
L34500 38920
" />
<path d="M34720 39110
L34760 39130
L34860 39130
L34910 39110
L34930 39060
L34930 39040
L34910 38990
L34860 38960
L34790 38960
L34740 38940
L34720 38890
L34720 38870
L34740 38820
L34790 38800
L34860 38800
L34910 38820
" />
<path d="M35450 38630
L35620 39130
L35790 38630
" />
<path d="M35880 38630
L36170 38630
" />
<path d="M36030 39130
L36030 38630
" />
<path d="M36600 38660
L36550 38630
L36480 38630
L36410 38660
L36360 38700
L36330 38750
L36310 38850
L36310 38920
L36330 39010
L36360 39060
L36410 39110
L36480 39130
L36530 39130
L36600 39110
L36620 39080
L36620 38920
L36530 38920
" />
<path d="M37360 39320
L37330 39300
L37290 39230
L37260 39180
L37240 39110
L37220 38990
L37220 38890
L37240 38770
L37260 38700
L37290 38660
L37330 38580
L37360 38560
" />
<path d="M37480 38630
L37640 39130
L37810 38630
" />
<path d="M38260 39080
L38240 39110
L38170 39130
L38120 39130
L38050 39110
L38000 39060
L37980 39010
L37950 38920
L37950 38850
L37980 38750
L38000 38700
L38050 38660
L38120 38630
L38170 38630
L38240 38660
L38260 38680
" />
<path d="M38760 39080
L38740 39110
L38670 39130
L38620 39130
L38550 39110
L38500 39060
L38480 39010
L38450 38920
L38450 38850
L38480 38750
L38500 38700
L38550 38660
L38620 38630
L38670 38630
L38740 38660
L38760 38680
" />
<path d="M39360 38800
L39360 39130
" />
<path d="M39360 38850
L39380 38820
L39430 38800
L39500 38800
L39550 38820
L39570 38870
L39570 39130
" />
<path d="M39880 39130
L39830 39110
L39810 39080
L39790 39040
L39790 38890
L39810 38850
L39830 38820
L39880 38800
L39950 38800
L40000 38820
L40030 38850
L40050 38890
L40050 39040
L40030 39080
L40000 39110
L39950 39130
L39880 39130
" />
<path d="M40220 38800
L40310 39130
L40410 38890
L40500 39130
L40600 38800
" />
<path d="M40740 39320
L40760 39300
L40810 39230
L40830 39180
L40860 39110
L40880 38990
L40880 38890
L40860 38770
L40830 38700
L40810 38660
L40760 38580
L40740 38560
" />
<text x="31500" y="39970"
textLength="4940" font-size="660" lengthAdjust="spacingAndGlyphs"
text-anchor="start" opacity="0">PIN6 us GND</text>
<path d="M31640 39940
L31640 39440
L31830 39440
L31880 39470
L31910 39490
L31930 39540
L31930 39610
L31910 39660
L31880 39680
L31830 39700
L31640 39700
" />
<path d="M32140 39940
L32140 39440
" />
<path d="M32380 39940
L32380 39440
L32670 39940
L32670 39440
" />
<path d="M33120 39440
L33030 39440
L32980 39470
L32950 39490
L32910 39560
L32880 39660
L32880 39850
L32910 39890
L32930 39920
L32980 39940
L33070 39940
L33120 39920
L33140 39890
L33170 39850
L33170 39730
L33140 39680
L33120 39660
L33070 39630
L32980 39630
L32930 39660
L32910 39680
L32880 39730
" />
<path d="M33980 39610
L33980 39940
" />
<path d="M33760 39610
L33760 39870
L33790 39920
L33830 39940
L33910 39940
L33950 39920
L33980 39890
" />
<path d="M34190 39920
L34240 39940
L34330 39940
L34380 39920
L34410 39870
L34410 39850
L34380 39800
L34330 39770
L34260 39770
L34220 39750
L34190 39700
L34190 39680
L34220 39630
L34260 39610
L34330 39610
L34380 39630
" />
<path d="M35260 39470
L35220 39440
L35140 39440
L35070 39470
L35030 39510
L35000 39560
L34980 39660
L34980 39730
L35000 39820
L35030 39870
L35070 39920
L35140 39940
L35190 39940
L35260 39920
L35290 39890
L35290 39730
L35190 39730
" />
<path d="M35500 39940
L35500 39440
L35790 39940
L35790 39440
" />
<path d="M36030 39940
L36030 39440
L36140 39440
L36220 39470
L36260 39510
L36290 39560
L36310 39660
L36310 39730
L36290 39820
L36260 39870
L36220 39920
L36140 39940
L36030 39940
" />
<text x="31500" y="40780"
textLength="7660" font-size="660" lengthAdjust="spacingAndGlyphs"
text-anchor="start" opacity="0">Bottom view of PCB</text>
<path d="M31810 40490
L31880 40510
L31910 40540
L31930 40580
L31930 40660
L31910 40700
L31880 40730
L31830 40750
L31640 40750
L31640 40250
L31810 40250
L31860 40280
L31880 40300
L31910 40350
L31910 40390
L31880 40440
L31860 40470
L31810 40490
L31640 40490
" />
<path d="M32220 40750
L32170 40730
L32140 40700
L32120 40660
L32120 40510
L32140 40470
L32170 40440
L32220 40420
L32290 40420
L32330 40440
L32360 40470
L32380 40510
L32380 40660
L32360 40700
L32330 40730
L32290 40750
L32220 40750
" />
<path d="M32530 40420
L32720 40420
" />
<path d="M32600 40250
L32600 40680
L32620 40730
L32670 40750
L32720 40750
" />
<path d="M32810 40420
L33000 40420
" />
<path d="M32880 40250
L32880 40680
L32910 40730
L32950 40750
L33000 40750
" />
<path d="M33240 40750
L33190 40730
L33170 40700
L33140 40660
L33140 40510
L33170 40470
L33190 40440
L33240 40420
L33310 40420
L33360 40440
L33380 40470
L33410 40510
L33410 40660
L33380 40700
L33360 40730
L33310 40750
L33240 40750
" />
<path d="M33620 40750
L33620 40420
" />
<path d="M33620 40470
L33640 40440
L33690 40420
L33760 40420
L33810 40440
L33830 40490
L33830 40750
" />
<path d="M33830 40490
L33860 40440
L33910 40420
L33980 40420
L34030 40440
L34050 40490
L34050 40750
" />
<path d="M34620 40420
L34740 40750
L34860 40420
" />
<path d="M35050 40750
L35050 40420
" />
<path d="M35050 40250
L35030 40280
L35050 40300
L35070 40280
L35050 40250
L35050 40300
" />
<path d="M35480 40730
L35430 40750
L35330 40750
L35290 40730
L35260 40680
L35260 40490
L35290 40440
L35330 40420
L35430 40420
L35480 40440
L35500 40490
L35500 40540
L35260 40580
" />
<path d="M35670 40420
L35760 40750
L35860 40510
L35950 40750
L36050 40420
" />
<path d="M36690 40750
L36640 40730
L36620 40700
L36600 40660
L36600 40510
L36620 40470
L36640 40440
L36690 40420
L36760 40420
L36810 40440
L36830 40470
L36860 40510
L36860 40660
L36830 40700
L36810 40730
L36760 40750
L36690 40750
" />
<path d="M37000 40420
L37190 40420
" />
<path d="M37070 40750
L37070 40320
L37100 40280
L37140 40250
L37190 40250
" />
<path d="M37740 40750
L37740 40250
L37930 40250
L37980 40280
L38000 40300
L38030 40350
L38030 40420
L38000 40470
L37980 40490
L37930 40510
L37740 40510
" />
<path d="M38530 40700
L38500 40730
L38430 40750
L38380 40750
L38310 40730
L38260 40680
L38240 40630
L38220 40540
L38220 40470
L38240 40370
L38260 40320
L38310 40280
L38380 40250
L38430 40250
L38500 40280
L38530 40300
" />
<path d="M38910 40490
L38980 40510
L39000 40540
L39030 40580
L39030 40660
L39000 40700
L38980 40730
L38930 40750
L38740 40750
L38740 40250
L38910 40250
L38950 40280
L38980 40300
L39000 40350
L39000 40390
L38980 40440
L38950 40470
L38910 40490
L38740 40490
" />
<text x="31500" y="41590"
textLength="10270" font-size="660" lengthAdjust="spacingAndGlyphs"
text-anchor="start" opacity="0">Connect from back of PCB</text>
<path d="M31930 41510
L31910 41540
L31830 41560
L31790 41560
L31720 41540
L31670 41490
L31640 41440
L31620 41350
L31620 41280
L31640 41180
L31670 41130
L31720 41090
L31790 41060
L31830 41060
L31910 41090
L31930 41110
" />
<path d="M32220 41560
L32170 41540
L32140 41510
L32120 41470
L32120 41320
L32140 41280
L32170 41250
L32220 41230
L32290 41230
L32330 41250
L32360 41280
L32380 41320
L32380 41470
L32360 41510
L32330 41540
L32290 41560
L32220 41560
" />
<path d="M32600 41230
L32600 41560
" />
<path d="M32600 41280
L32620 41250
L32670 41230
L32740 41230
L32790 41250
L32810 41300
L32810 41560
" />
<path d="M33050 41230
L33050 41560
" />
<path d="M33050 41280
L33070 41250
L33120 41230
L33190 41230
L33240 41250
L33260 41300
L33260 41560
" />
<path d="M33690 41540
L33640 41560
L33550 41560
L33500 41540
L33480 41490
L33480 41300
L33500 41250
L33550 41230
L33640 41230
L33690 41250
L33720 41300
L33720 41350
L33480 41390
" />
<path d="M34140 41540
L34100 41560
L34000 41560
L33950 41540
L33930 41510
L33910 41470
L33910 41320
L33930 41280
L33950 41250
L34000 41230
L34100 41230
L34140 41250
" />
<path d="M34290 41230
L34480 41230
" />
<path d="M34360 41060
L34360 41490
L34380 41540
L34430 41560
L34480 41560
" />
<path d="M34950 41230
L35140 41230
" />
<path d="M35030 41560
L35030 41130
L35050 41090
L35100 41060
L35140 41060
" />
<path d="M35310 41560
L35310 41230
" />
<path d="M35310 41320
L35330 41280
L35360 41250
L35410 41230
L35450 41230
" />
<path d="M35690 41560
L35640 41540
L35620 41510
L35600 41470
L35600 41320
L35620 41280
L35640 41250
L35690 41230
L35760 41230
L35810 41250
L35830 41280
L35860 41320
L35860 41470
L35830 41510
L35810 41540
L35760 41560
L35690 41560
" />
<path d="M36070 41560
L36070 41230
" />
<path d="M36070 41280
L36100 41250
L36140 41230
L36220 41230
L36260 41250
L36290 41300
L36290 41560
" />
<path d="M36290 41300
L36310 41250
L36360 41230
L36430 41230
L36480 41250
L36500 41300
L36500 41560
" />
<path d="M37120 41560
L37120 41060
" />
<path d="M37120 41250
L37170 41230
L37260 41230
L37310 41250
L37330 41280
L37360 41320
L37360 41470
L37330 41510
L37310 41540
L37260 41560
L37170 41560
L37120 41540
" />
<path d="M37790 41560
L37790 41300
L37760 41250
L37720 41230
L37620 41230
L37570 41250
" />
<path d="M37790 41540
L37740 41560
L37620 41560
L37570 41540
L37550 41490
L37550 41440
L37570 41390
L37620 41370
L37740 41370
L37790 41350
" />
<path d="M38240 41540
L38190 41560
L38100 41560
L38050 41540
L38030 41510
L38000 41470
L38000 41320
L38030 41280
L38050 41250
L38100 41230
L38190 41230
L38240 41250
" />
<path d="M38450 41560
L38450 41060
" />
<path d="M38500 41370
L38640 41560
" />
<path d="M38640 41230
L38450 41420
" />
<path d="M39310 41560
L39260 41540
L39240 41510
L39220 41470
L39220 41320
L39240 41280
L39260 41250
L39310 41230
L39380 41230
L39430 41250
L39450 41280
L39480 41320
L39480 41470
L39450 41510
L39430 41540
L39380 41560
L39310 41560
" />
<path d="M39620 41230
L39810 41230
" />
<path d="M39690 41560
L39690 41130
L39720 41090
L39760 41060
L39810 41060
" />
<path d="M40360 41560
L40360 41060
L40550 41060
L40600 41090
L40620 41110
L40640 41160
L40640 41230
L40620 41280
L40600 41300
L40550 41320
L40360 41320
" />
<path d="M41140 41510
L41120 41540
L41050 41560
L41000 41560
L40930 41540
L40880 41490
L40860 41440
L40830 41350
L40830 41280
L40860 41180
L40880 41130
L40930 41090
L41000 41060
L41050 41060
L41120 41090
L41140 41110
" />
<path d="M41530 41300
L41600 41320
L41620 41350
L41640 41390
L41640 41470
L41620 41510
L41600 41540
L41550 41560
L41360 41560
L41360 41060
L41530 41060
L41570 41090
L41600 41110
L41620 41160
L41620 41200
L41600 41250
L41570 41280
L41530 41300
L41360 41300
" />
<text x="31500" y="42400"
textLength="10200" font-size="660" lengthAdjust="spacingAndGlyphs"
text-anchor="start" opacity="0">using 2 inside corner pins</text>
<path d="M31860 42040
L31860 42370
" />
<path d="M31640 42040
L31640 42300
L31670 42350
L31720 42370
L31790 42370
L31830 42350
L31860 42320
" />
<path d="M32070 42350
L32120 42370
L32220 42370
L32260 42350
L32290 42300
L32290 42280
L32260 42230
L32220 42200
L32140 42200
L32100 42180
L32070 42130
L32070 42110
L32100 42060
L32140 42040
L32220 42040
L32260 42060
" />
<path d="M32500 42370
L32500 42040
" />
<path d="M32500 41870
L32480 41900
L32500 41920
L32530 41900
L32500 41870
L32500 41920
" />
<path d="M32740 42040
L32740 42370
" />
<path d="M32740 42090
L32760 42060
L32810 42040
L32880 42040
L32930 42060
L32950 42110
L32950 42370
" />
<path d="M33410 42040
L33410 42440
L33380 42490
L33360 42510
L33310 42540
L33240 42540
L33190 42510
" />
<path d="M33410 42350
L33360 42370
L33260 42370
L33220 42350
L33190 42320
L33170 42280
L33170 42130
L33190 42090
L33220 42060
L33260 42040
L33360 42040
L33410 42060
" />
<path d="M34000 41920
L34030 41900
L34070 41870
L34190 41870
L34240 41900
L34260 41920
L34290 41970
L34290 42010
L34260 42090
L33980 42370
L34290 42370
" />
<path d="M34880 42370
L34880 42040
" />
<path d="M34880 41870
L34860 41900
L34880 41920
L34910 41900
L34880 41870
L34880 41920
" />
<path d="M35120 42040
L35120 42370
" />
<path d="M35120 42090
L35140 42060
L35190 42040
L35260 42040
L35310 42060
L35330 42110
L35330 42370
" />
<path d="M35550 42350
L35600 42370
L35690 42370
L35740 42350
L35760 42300
L35760 42280
L35740 42230
L35690 42200
L35620 42200
L35570 42180
L35550 42130
L35550 42110
L35570 42060
L35620 42040
L35690 42040
L35740 42060
" />
<path d="M35980 42370
L35980 42040
" />
<path d="M35980 41870
L35950 41900
L35980 41920
L36000 41900
L35980 41870
L35980 41920
" />
<path d="M36430 42370
L36430 41870
" />
<path d="M36430 42350
L36380 42370
L36290 42370
L36240 42350
L36220 42320
L36190 42280
L36190 42130
L36220 42090
L36240 42060
L36290 42040
L36380 42040
L36430 42060
" />
<path d="M36860 42350
L36810 42370
L36720 42370
L36670 42350
L36640 42300
L36640 42110
L36670 42060
L36720 42040
L36810 42040
L36860 42060
L36880 42110
L36880 42160
L36640 42200
" />
<path d="M37690 42350
L37640 42370
L37550 42370
L37500 42350
L37480 42320
L37450 42280
L37450 42130
L37480 42090
L37500 42060
L37550 42040
L37640 42040
L37690 42060
" />
<path d="M37980 42370
L37930 42350
L37910 42320
L37880 42280
L37880 42130
L37910 42090
L37930 42060
L37980 42040
L38050 42040
L38100 42060
L38120 42090
L38140 42130
L38140 42280
L38120 42320
L38100 42350
L38050 42370
L37980 42370
" />
<path d="M38360 42370
L38360 42040
" />
<path d="M38360 42130
L38380 42090
L38410 42060
L38450 42040
L38500 42040
" />
<path d="M38670 42040
L38670 42370
" />
<path d="M38670 42090
L38690 42060
L38740 42040
L38810 42040
L38860 42060
L38880 42110
L38880 42370
" />
<path d="M39310 42350
L39260 42370
L39170 42370
L39120 42350
L39100 42300
L39100 42110
L39120 42060
L39170 42040
L39260 42040
L39310 42060
L39330 42110
L39330 42160
L39100 42200
" />
<path d="M39550 42370
L39550 42040
" />
<path d="M39550 42130
L39570 42090
L39600 42060
L39640 42040
L39690 42040
" />
<path d="M40240 42040
L40240 42540
" />
<path d="M40240 42060
L40290 42040
L40380 42040
L40430 42060
L40450 42090
L40480 42130
L40480 42280
L40450 42320
L40430 42350
L40380 42370
L40290 42370
L40240 42350
" />
<path d="M40690 42370
L40690 42040
" />
<path d="M40690 41870
L40670 41900
L40690 41920
L40720 41900
L40690 41870
L40690 41920
" />
<path d="M40930 42040
L40930 42370
" />
<path d="M40930 42090
L40950 42060
L41000 42040
L41070 42040
L41120 42060
L41140 42110
L41140 42370
" />
<path d="M41360 42350
L41410 42370
L41500 42370
L41550 42350
L41570 42300
L41570 42280
L41550 42230
L41500 42200
L41430 42200
L41380 42180
L41360 42130
L41360 42110
L41380 42060
L41430 42040
L41500 42040
L41550 42060
" />
<text x="21000" y="25780"
textLength="10660" font-size="660" lengthAdjust="spacingAndGlyphs"
text-anchor="start" opacity="0">PIN 1 is left most pin from</text>
<path d="M21140 25750
L21140 25250
L21330 25250
L21380 25280
L21410 25300
L21430 25350
L21430 25420
L21410 25470
L21380 25490
L21330 25510
L21140 25510
" />
<path d="M21640 25750
L21640 25250
" />
<path d="M21880 25750
L21880 25250
L22170 25750
L22170 25250
" />
<path d="M23050 25750
L22760 25750
" />
<path d="M22910 25750
L22910 25250
L22860 25320
L22810 25370
L22760 25390
" />
<path d="M23640 25750
L23640 25420
" />
<path d="M23640 25250
L23620 25280
L23640 25300
L23670 25280
L23640 25250
L23640 25300
" />
<path d="M23860 25730
L23910 25750
L24000 25750
L24050 25730
L24070 25680
L24070 25660
L24050 25610
L24000 25580
L23930 25580
L23880 25560
L23860 25510
L23860 25490
L23880 25440
L23930 25420
L24000 25420
L24050 25440
" />
<path d="M24740 25750
L24690 25730
L24670 25680
L24670 25250
" />
<path d="M25120 25730
L25070 25750
L24980 25750
L24930 25730
L24910 25680
L24910 25490
L24930 25440
L24980 25420
L25070 25420
L25120 25440
L25140 25490
L25140 25540
L24910 25580
" />
<path d="M25290 25420
L25480 25420
" />
<path d="M25360 25750
L25360 25320
L25380 25280
L25430 25250
L25480 25250
" />
<path d="M25570 25420
L25760 25420
" />
<path d="M25640 25250
L25640 25680
L25670 25730
L25720 25750
L25760 25750
" />
<path d="M26310 25750
L26310 25420
" />
<path d="M26310 25470
L26330 25440
L26380 25420
L26450 25420
L26500 25440
L26530 25490
L26530 25750
" />
<path d="M26530 25490
L26550 25440
L26600 25420
L26670 25420
L26720 25440
L26740 25490
L26740 25750
" />
<path d="M27050 25750
L27000 25730
L26980 25700
L26950 25660
L26950 25510
L26980 25470
L27000 25440
L27050 25420
L27120 25420
L27170 25440
L27190 25470
L27220 25510
L27220 25660
L27190 25700
L27170 25730
L27120 25750
L27050 25750
" />
<path d="M27410 25730
L27450 25750
L27550 25750
L27600 25730
L27620 25680
L27620 25660
L27600 25610
L27550 25580
L27480 25580
L27430 25560
L27410 25510
L27410 25490
L27430 25440
L27480 25420
L27550 25420
L27600 25440
" />
<path d="M27760 25420
L27950 25420
" />
<path d="M27830 25250
L27830 25680
L27860 25730
L27910 25750
L27950 25750
" />
<path d="M28500 25420
L28500 25920
" />
<path d="M28500 25440
L28550 25420
L28640 25420
L28690 25440
L28720 25470
L28740 25510
L28740 25660
L28720 25700
L28690 25730
L28640 25750
L28550 25750
L28500 25730
" />
<path d="M28950 25750
L28950 25420
" />
<path d="M28950 25250
L28930 25280
L28950 25300
L28980 25280
L28950 25250
L28950 25300
" />
<path d="M29190 25420
L29190 25750
" />
<path d="M29190 25470
L29220 25440
L29260 25420
L29330 25420
L29380 25440
L29410 25490
L29410 25750
" />
<path d="M29950 25420
L30140 25420
" />
<path d="M30030 25750
L30030 25320
L30050 25280
L30100 25250
L30140 25250
" />
<path d="M30310 25750
L30310 25420
" />
<path d="M30310 25510
L30330 25470
L30360 25440
L30410 25420
L30450 25420
" />
<path d="M30690 25750
L30640 25730
L30620 25700
L30600 25660
L30600 25510
L30620 25470
L30640 25440
L30690 25420
L30760 25420
L30810 25440
L30830 25470
L30860 25510
L30860 25660
L30830 25700
L30810 25730
L30760 25750
L30690 25750
" />
<path d="M31070 25750
L31070 25420
" />
<path d="M31070 25470
L31100 25440
L31140 25420
L31220 25420
L31260 25440
L31290 25490
L31290 25750
" />
<path d="M31290 25490
L31310 25440
L31360 25420
L31430 25420
L31480 25440
L31500 25490
L31500 25750
" />
<text x="21000" y="26590"
textLength="9300" font-size="660" lengthAdjust="spacingAndGlyphs"
text-anchor="start" opacity="0">back of USB B conector</text>
<path d="M21140 26560
L21140 26060
" />
<path d="M21140 26250
L21190 26230
L21290 26230
L21330 26250
L21360 26280
L21380 26320
L21380 26470
L21360 26510
L21330 26540
L21290 26560
L21190 26560
L21140 26540
" />
<path d="M21810 26560
L21810 26300
L21790 26250
L21740 26230
L21640 26230
L21600 26250
" />
<path d="M21810 26540
L21760 26560
L21640 26560
L21600 26540
L21570 26490
L21570 26440
L21600 26390
L21640 26370
L21760 26370
L21810 26350
" />
<path d="M22260 26540
L22220 26560
L22120 26560
L22070 26540
L22050 26510
L22030 26470
L22030 26320
L22050 26280
L22070 26250
L22120 26230
L22220 26230
L22260 26250
" />
<path d="M22480 26560
L22480 26060
" />
<path d="M22530 26370
L22670 26560
" />
<path d="M22670 26230
L22480 26420
" />
<path d="M23330 26560
L23290 26540
L23260 26510
L23240 26470
L23240 26320
L23260 26280
L23290 26250
L23330 26230
L23410 26230
L23450 26250
L23480 26280
L23500 26320
L23500 26470
L23480 26510
L23450 26540
L23410 26560
L23330 26560
" />
<path d="M23640 26230
L23830 26230
" />
<path d="M23720 26560
L23720 26130
L23740 26090
L23790 26060
L23830 26060
" />
<path d="M24380 26060
L24380 26470
L24410 26510
L24430 26540
L24480 26560
L24570 26560
L24620 26540
L24640 26510
L24670 26470
L24670 26060
" />
<path d="M24880 26540
L24950 26560
L25070 26560
L25120 26540
L25140 26510
L25170 26470
L25170 26420
L25140 26370
L25120 26350
L25070 26320
L24980 26300
L24930 26280
L24910 26250
L24880 26200
L24880 26160
L24910 26110
L24930 26090
L24980 26060
L25100 26060
L25170 26090
" />
<path d="M25550 26300
L25620 26320
L25640 26350
L25670 26390
L25670 26470
L25640 26510
L25620 26540
L25570 26560
L25380 26560
L25380 26060
L25550 26060
L25600 26090
L25620 26110
L25640 26160
L25640 26200
L25620 26250
L25600 26280
L25550 26300
L25380 26300
" />
<path d="M26430 26300
L26500 26320
L26530 26350
L26550 26390
L26550 26470
L26530 26510
L26500 26540
L26450 26560
L26260 26560
L26260 26060
L26430 26060
L26480 26090
L26500 26110
L26530 26160
L26530 26200
L26500 26250
L26480 26280
L26430 26300
L26260 26300
" />
<path d="M27360 26540
L27310 26560
L27220 26560
L27170 26540
L27140 26510
L27120 26470
L27120 26320
L27140 26280
L27170 26250
L27220 26230
L27310 26230
L27360 26250
" />
<path d="M27640 26560
L27600 26540
L27570 26510
L27550 26470
L27550 26320
L27570 26280
L27600 26250
L27640 26230
L27720 26230
L27760 26250
L27790 26280
L27810 26320
L27810 26470
L27790 26510
L27760 26540
L27720 26560
L27640 26560
" />
<path d="M28030 26230
L28030 26560
" />
<path d="M28030 26280
L28050 26250
L28100 26230
L28170 26230
L28220 26250
L28240 26300
L28240 26560
" />
<path d="M28670 26540
L28620 26560
L28520 26560
L28480 26540
L28450 26490
L28450 26300
L28480 26250
L28520 26230
L28620 26230
L28670 26250
L28690 26300
L28690 26350
L28450 26390
" />
<path d="M29120 26540
L29070 26560
L28980 26560
L28930 26540
L28910 26510
L28880 26470
L28880 26320
L28910 26280
L28930 26250
L28980 26230
L29070 26230
L29120 26250
" />
<path d="M29260 26230
L29450 26230
" />
<path d="M29330 26060
L29330 26490
L29360 26540
L29410 26560
L29450 26560
" />
<path d="M29690 26560
L29640 26540
L29620 26510
L29600 26470
L29600 26320
L29620 26280
L29640 26250
L29690 26230
L29760 26230
L29810 26250
L29830 26280
L29860 26320
L29860 26470
L29830 26510
L29810 26540
L29760 26560
L29690 26560
" />
<path d="M30070 26560
L30070 26230
" />
<path d="M30070 26320
L30100 26280
L30120 26250
L30170 26230
L30220 26230
" />
<text x="21000" y="27400"
textLength="11940" font-size="660" lengthAdjust="spacingAndGlyphs"
text-anchor="start" opacity="0">Connect directly from conector</text>
<path d="M21430 27320
L21410 27350
L21330 27370
L21290 27370
L21220 27350
L21170 27300
L21140 27250
L21120 27160
L21120 27090
L21140 26990
L21170 26940
L21220 26900
L21290 26870
L21330 26870
L21410 26900
L21430 26920
" />
<path d="M21720 27370
L21670 27350
L21640 27320
L21620 27280
L21620 27130
L21640 27090
L21670 27060
L21720 27040
L21790 27040
L21830 27060
L21860 27090
L21880 27130
L21880 27280
L21860 27320
L21830 27350
L21790 27370
L21720 27370
" />
<path d="M22100 27040
L22100 27370
" />
<path d="M22100 27090
L22120 27060
L22170 27040
L22240 27040
L22290 27060
L22310 27110
L22310 27370
" />
<path d="M22550 27040
L22550 27370
" />
<path d="M22550 27090
L22570 27060
L22620 27040
L22690 27040
L22740 27060
L22760 27110
L22760 27370
" />
<path d="M23190 27350
L23140 27370
L23050 27370
L23000 27350
L22980 27300
L22980 27110
L23000 27060
L23050 27040
L23140 27040
L23190 27060
L23220 27110
L23220 27160
L22980 27200
" />
<path d="M23640 27350
L23600 27370
L23500 27370
L23450 27350
L23430 27320
L23410 27280
L23410 27130
L23430 27090
L23450 27060
L23500 27040
L23600 27040
L23640 27060
" />
<path d="M23790 27040
L23980 27040
" />
<path d="M23860 26870
L23860 27300
L23880 27350
L23930 27370
L23980 27370
" />
<path d="M24740 27370
L24740 26870
" />
<path d="M24740 27350
L24690 27370
L24600 27370
L24550 27350
L24530 27320
L24500 27280
L24500 27130
L24530 27090
L24550 27060
L24600 27040
L24690 27040
L24740 27060
" />
<path d="M24980 27370
L24980 27040
" />
<path d="M24980 26870
L24950 26900
L24980 26920
L25000 26900
L24980 26870
L24980 26920
" />
<path d="M25220 27370
L25220 27040
" />
<path d="M25220 27130
L25240 27090
L25260 27060
L25310 27040
L25360 27040
" />
<path d="M25720 27350
L25670 27370
L25570 27370
L25530 27350
L25500 27300
L25500 27110
L25530 27060
L25570 27040
L25670 27040
L25720 27060
L25740 27110
L25740 27160
L25500 27200
" />
<path d="M26170 27350
L26120 27370
L26030 27370
L25980 27350
L25950 27320
L25930 27280
L25930 27130
L25950 27090
L25980 27060
L26030 27040
L26120 27040
L26170 27060
" />
<path d="M26310 27040
L26500 27040
" />
<path d="M26380 26870
L26380 27300
L26410 27350
L26450 27370
L26500 27370
" />
<path d="M26740 27370
L26690 27350
L26670 27300
L26670 26870
" />
<path d="M26880 27040
L27000 27370
" />
<path d="M27120 27040
L27000 27370
L26950 27490
L26930 27510
L26880 27540
" />
<path d="M27620 27040
L27810 27040
" />
<path d="M27690 27370
L27690 26940
L27720 26900
L27760 26870
L27810 26870
" />
<path d="M27980 27370
L27980 27040
" />
<path d="M27980 27130
L28000 27090
L28030 27060
L28070 27040
L28120 27040
" />
<path d="M28360 27370
L28310 27350
L28290 27320
L28260 27280
L28260 27130
L28290 27090
L28310 27060
L28360 27040
L28430 27040
L28480 27060
L28500 27090
L28530 27130
L28530 27280
L28500 27320
L28480 27350
L28430 27370
L28360 27370
" />
<path d="M28740 27370
L28740 27040
" />
<path d="M28740 27090
L28760 27060
L28810 27040
L28880 27040
L28930 27060
L28950 27110
L28950 27370
" />
<path d="M28950 27110
L28980 27060
L29030 27040
L29100 27040
L29140 27060
L29170 27110
L29170 27370
" />
<path d="M30000 27350
L29950 27370
L29860 27370
L29810 27350
L29790 27320
L29760 27280
L29760 27130
L29790 27090
L29810 27060
L29860 27040
L29950 27040
L30000 27060
" />
<path d="M30290 27370
L30240 27350
L30220 27320
L30190 27280
L30190 27130
L30220 27090
L30240 27060
L30290 27040
L30360 27040
L30410 27060
L30430 27090
L30450 27130
L30450 27280
L30430 27320
L30410 27350
L30360 27370
L30290 27370
" />
<path d="M30670 27040
L30670 27370
" />
<path d="M30670 27090
L30690 27060
L30740 27040
L30810 27040
L30860 27060
L30880 27110
L30880 27370
" />
<path d="M31310 27350
L31260 27370
L31170 27370
L31120 27350
L31100 27300
L31100 27110
L31120 27060
L31170 27040
L31260 27040
L31310 27060
L31330 27110
L31330 27160
L31100 27200
" />
<path d="M31760 27350
L31720 27370
L31620 27370
L31570 27350
L31550 27320
L31530 27280
L31530 27130
L31550 27090
L31570 27060
L31620 27040
L31720 27040
L31760 27060
" />
<path d="M31910 27040
L32100 27040
" />
<path d="M31980 26870
L31980 27300
L32000 27350
L32050 27370
L32100 27370
" />
<path d="M32330 27370
L32290 27350
L32260 27320
L32240 27280
L32240 27130
L32260 27090
L32290 27060
L32330 27040
L32410 27040
L32450 27060
L32480 27090
L32500 27130
L32500 27280
L32480 27320
L32450 27350
L32410 27370
L32330 27370
" />
<path d="M32720 27370
L32720 27040
" />
<path d="M32720 27130
L32740 27090
L32760 27060
L32810 27040
L32860 27040
" />
</g>
<g style="fill:#0000C2; fill-opacity:0.0; 
stroke:#0000C2; stroke-width:0; stroke-opacity:1; 
stroke-linecap:round; stroke-linejoin:round;">
</g>
<g style="fill:#008400; fill-opacity:0.0; 
stroke:#008400; stroke-width:0; stroke-opacity:1; 
stroke-linecap:round; stroke-linejoin:round;">
</g>
<g style="fill:#008400; fill-opacity:1.0; 
stroke:#008400; stroke-width:100; stroke-opacity:1; 
stroke-linecap:round; stroke-linejoin:round;">
<circle cx="61000" cy="19000" r="200" /> 
</g> 
</svg>
